<mxfile host="app.diagrams.net" modified="2020-09-22T13:38:53.572Z" agent="5.0 (Windows NT 10.0; Win64; x64) AppleWebKit/537.36 (KHTML, like Gecko) Chrome/85.0.4183.121 Safari/537.36" etag="koBC2SiPY4bfnmCViaAX" version="13.7.3" type="github" pages="4">
  <diagram id="v70nW824M8R4AOz3LLfw" name="OrderEntry">
    <mxGraphModel dx="6340" dy="4074" grid="1" gridSize="11" guides="1" tooltips="1" connect="1" arrows="1" fold="1" page="1" pageScale="1" pageWidth="2339" pageHeight="3300" math="0" shadow="0">
      <root>
        <mxCell id="0" />
        <mxCell id="1" parent="0" />
        <mxCell id="3Qp2xXLN1smk-MfCKVBW-4" value="" style="edgeStyle=orthogonalEdgeStyle;rounded=0;orthogonalLoop=1;jettySize=auto;html=1;entryX=0;entryY=0.5;entryDx=0;entryDy=0;startArrow=classic;startFill=1;endArrow=none;endFill=0;" parent="1" source="3Qp2xXLN1smk-MfCKVBW-2" target="SC3JEf4WINsSZaT9sH8f-64" edge="1">
          <mxGeometry relative="1" as="geometry">
            <mxPoint x="1353" y="240" as="targetPoint" />
          </mxGeometry>
        </mxCell>
        <mxCell id="YiUYvIcf1jTSnU425tms-5" style="edgeStyle=orthogonalEdgeStyle;rounded=0;orthogonalLoop=1;jettySize=auto;html=1;entryX=1;entryY=0.5;entryDx=0;entryDy=0;startArrow=classic;startFill=1;endArrow=classic;endFill=1;" parent="1" source="3Qp2xXLN1smk-MfCKVBW-2" target="jS5UeziIzz8t74J8Ag5z-3" edge="1">
          <mxGeometry relative="1" as="geometry" />
        </mxCell>
        <mxCell id="3Qp2xXLN1smk-MfCKVBW-2" value="&lt;font style=&quot;font-size: 14px&quot;&gt;Cliente&lt;/font&gt;" style="rounded=1;whiteSpace=wrap;html=1;fillColor=#dae8fc;strokeColor=#6c8ebf;fontSize=13;" parent="1" vertex="1">
          <mxGeometry x="1034" y="210" width="120" height="60" as="geometry" />
        </mxCell>
        <mxCell id="3Qp2xXLN1smk-MfCKVBW-7" style="edgeStyle=orthogonalEdgeStyle;rounded=0;orthogonalLoop=1;jettySize=auto;html=1;entryX=0;entryY=0.5;entryDx=0;entryDy=0;exitX=0.995;exitY=0.361;exitDx=0;exitDy=0;exitPerimeter=0;" parent="1" source="jS5UeziIzz8t74J8Ag5z-44" target="3Qp2xXLN1smk-MfCKVBW-5" edge="1">
          <mxGeometry relative="1" as="geometry">
            <mxPoint x="1464" y="240" as="sourcePoint" />
            <Array as="points">
              <mxPoint x="1514" y="426" />
              <mxPoint x="1594" y="426" />
              <mxPoint x="1594" y="240" />
            </Array>
          </mxGeometry>
        </mxCell>
        <mxCell id="3Qp2xXLN1smk-MfCKVBW-10" value="" style="edgeStyle=orthogonalEdgeStyle;rounded=0;orthogonalLoop=1;jettySize=auto;html=1;exitX=0.5;exitY=1;exitDx=0;exitDy=0;" parent="1" source="3Qp2xXLN1smk-MfCKVBW-5" target="3Qp2xXLN1smk-MfCKVBW-9" edge="1">
          <mxGeometry relative="1" as="geometry" />
        </mxCell>
        <mxCell id="3Qp2xXLN1smk-MfCKVBW-5" value="&lt;font style=&quot;font-size: 14px&quot;&gt;&lt;b&gt;Cidade &lt;br&gt;sem Frete&lt;/b&gt;&lt;/font&gt;" style="rhombus;whiteSpace=wrap;html=1;" parent="1" vertex="1">
          <mxGeometry x="1672" y="195" width="130" height="90" as="geometry" />
        </mxCell>
        <mxCell id="3Qp2xXLN1smk-MfCKVBW-9" value="&lt;font style=&quot;font-size: 14px&quot;&gt;Redirecionar para Centro de Controle de Leads&lt;/font&gt;" style="whiteSpace=wrap;html=1;fillColor=#dae8fc;strokeColor=#6c8ebf;" parent="1" vertex="1">
          <mxGeometry x="1826" y="285" width="190" height="60" as="geometry" />
        </mxCell>
        <mxCell id="3Qp2xXLN1smk-MfCKVBW-12" value="&lt;div&gt;1. Mostrar mensagem de produtos indisponíveis para a região.&lt;/div&gt;&lt;div&gt;2. Registrar casos de cidades sem frete/abrir ticket no SNOW&lt;/div&gt;" style="text;html=1;fillColor=none;align=center;verticalAlign=middle;whiteSpace=wrap;rounded=0;fontStyle=1;strokeColor=#000000;" parent="1" vertex="1">
          <mxGeometry x="1826" y="217.5" width="420" height="45" as="geometry" />
        </mxCell>
        <mxCell id="2mpdW63NxKz5ffvul3Hc-3" style="edgeStyle=orthogonalEdgeStyle;rounded=0;orthogonalLoop=1;jettySize=auto;html=1;entryX=0.5;entryY=0;entryDx=0;entryDy=0;" parent="1" source="jS5UeziIzz8t74J8Ag5z-1" target="jS5UeziIzz8t74J8Ag5z-52" edge="1">
          <mxGeometry relative="1" as="geometry" />
        </mxCell>
        <mxCell id="jS5UeziIzz8t74J8Ag5z-1" value="Checkout&lt;br&gt;(Comprar Produto)" style="whiteSpace=wrap;html=1;fontStyle=0;strokeColor=#6c8ebf;fillColor=#dae8fc;" parent="1" vertex="1">
          <mxGeometry x="1320" y="1109.25" width="176" height="60" as="geometry" />
        </mxCell>
        <mxCell id="jS5UeziIzz8t74J8Ag5z-6" value="" style="edgeStyle=orthogonalEdgeStyle;rounded=0;orthogonalLoop=1;jettySize=auto;html=1;fontSize=13;fontColor=#000000;entryX=0.5;entryY=0;entryDx=0;entryDy=0;" parent="1" source="jS5UeziIzz8t74J8Ag5z-3" target="YiUYvIcf1jTSnU425tms-36" edge="1">
          <mxGeometry relative="1" as="geometry">
            <mxPoint x="577" y="308" as="targetPoint" />
          </mxGeometry>
        </mxCell>
        <mxCell id="YiUYvIcf1jTSnU425tms-6" style="edgeStyle=orthogonalEdgeStyle;rounded=0;orthogonalLoop=1;jettySize=auto;html=1;startArrow=classic;startFill=1;endArrow=classic;endFill=1;entryX=0;entryY=0.5;entryDx=0;entryDy=0;" parent="1" source="jS5UeziIzz8t74J8Ag5z-3" target="2mpdW63NxKz5ffvul3Hc-2" edge="1">
          <mxGeometry relative="1" as="geometry">
            <mxPoint x="1298" y="946" as="targetPoint" />
            <Array as="points">
              <mxPoint x="792" y="377" />
              <mxPoint x="869" y="377" />
              <mxPoint x="869" y="891" />
              <mxPoint x="1265" y="891" />
              <mxPoint x="1265" y="932" />
            </Array>
          </mxGeometry>
        </mxCell>
        <mxCell id="jS5UeziIzz8t74J8Ag5z-3" value="Autentica/Cadastra Cliente&lt;br&gt;(API Economy)" style="whiteSpace=wrap;html=1;fontStyle=0;strokeColor=#6c8ebf;fillColor=#dae8fc;" parent="1" vertex="1">
          <mxGeometry x="717" y="210" width="120" height="60" as="geometry" />
        </mxCell>
        <mxCell id="jS5UeziIzz8t74J8Ag5z-28" value="" style="edgeStyle=orthogonalEdgeStyle;rounded=0;orthogonalLoop=1;jettySize=auto;html=1;fontSize=13;fontColor=#000000;" parent="1" source="jS5UeziIzz8t74J8Ag5z-25" target="jS5UeziIzz8t74J8Ag5z-27" edge="1">
          <mxGeometry relative="1" as="geometry" />
        </mxCell>
        <mxCell id="YiUYvIcf1jTSnU425tms-9" style="edgeStyle=orthogonalEdgeStyle;rounded=0;orthogonalLoop=1;jettySize=auto;html=1;entryX=0.5;entryY=0;entryDx=0;entryDy=0;startArrow=none;startFill=0;endArrow=classic;endFill=1;" parent="1" source="jS5UeziIzz8t74J8Ag5z-25" target="jS5UeziIzz8t74J8Ag5z-1" edge="1">
          <mxGeometry relative="1" as="geometry" />
        </mxCell>
        <mxCell id="jS5UeziIzz8t74J8Ag5z-25" value="Add to cart" style="whiteSpace=wrap;html=1;fontStyle=0;strokeColor=#6c8ebf;fillColor=#dae8fc;" parent="1" vertex="1">
          <mxGeometry x="1320" y="1001" width="176" height="61.5" as="geometry" />
        </mxCell>
        <mxCell id="jS5UeziIzz8t74J8Ag5z-27" value="* Forecast para quantidade está disponível em BI.&lt;br&gt;* Existe uma frente de cadastro no  SF.&lt;br&gt;* Não será considerado no MVP" style="whiteSpace=wrap;html=1;fontStyle=0;strokeColor=#C73500;fillColor=#fa6800;fontColor=#ffffff;align=left;" parent="1" vertex="1">
          <mxGeometry x="1782" y="1001" width="297" height="60" as="geometry" />
        </mxCell>
        <mxCell id="jS5UeziIzz8t74J8Ag5z-31" value="&lt;div&gt;* Ver com Pricing uma lista de preços padrão com impostos já calculados.&lt;/div&gt;&lt;div&gt;* SKU: Utilizar o código do material SAP no gerenciamento dos produtos.&lt;/div&gt;" style="whiteSpace=wrap;html=1;fontStyle=0;strokeColor=#C73500;fillColor=#fa6800;fontColor=#ffffff;" parent="1" vertex="1">
          <mxGeometry x="1782" y="539" width="481" height="60" as="geometry" />
        </mxCell>
        <mxCell id="jS5UeziIzz8t74J8Ag5z-39" value="" style="edgeStyle=orthogonalEdgeStyle;rounded=0;orthogonalLoop=1;jettySize=auto;html=1;fontSize=13;fontColor=#000000;" parent="1" edge="1">
          <mxGeometry relative="1" as="geometry">
            <mxPoint x="446.99999999999955" y="953.25" as="sourcePoint" />
          </mxGeometry>
        </mxCell>
        <mxCell id="jS5UeziIzz8t74J8Ag5z-43" value="" style="edgeStyle=orthogonalEdgeStyle;rounded=0;orthogonalLoop=1;jettySize=auto;html=1;fontSize=13;fontColor=#000000;" parent="1" source="jS5UeziIzz8t74J8Ag5z-40" target="jS5UeziIzz8t74J8Ag5z-42" edge="1">
          <mxGeometry relative="1" as="geometry" />
        </mxCell>
        <mxCell id="YiUYvIcf1jTSnU425tms-2" style="edgeStyle=orthogonalEdgeStyle;rounded=0;orthogonalLoop=1;jettySize=auto;html=1;entryX=0.5;entryY=0;entryDx=0;entryDy=0;startArrow=none;startFill=0;endArrow=classic;endFill=1;" parent="1" source="jS5UeziIzz8t74J8Ag5z-40" target="2mpdW63NxKz5ffvul3Hc-2" edge="1">
          <mxGeometry relative="1" as="geometry" />
        </mxCell>
        <mxCell id="jS5UeziIzz8t74J8Ag5z-40" value="Selecionar&lt;br&gt;DeliveryDate&lt;br&gt;(Pricing List)" style="whiteSpace=wrap;html=1;fontStyle=0;strokeColor=#6c8ebf;fillColor=#dae8fc;" parent="1" vertex="1">
          <mxGeometry x="1326" y="781" width="176" height="60" as="geometry" />
        </mxCell>
        <mxCell id="jS5UeziIzz8t74J8Ag5z-42" value="&lt;div&gt;* MVP: Permitir &quot;Delivery Date&quot;.&lt;/div&gt;&lt;div&gt;- ETA: Semana aproximada para o Delivery Date.&lt;/div&gt;&lt;div style=&quot;&quot;&gt;- DEFINIR: Não teremos &quot;Location&quot; para cada item do pedido no MVP.&lt;/div&gt;" style="whiteSpace=wrap;html=1;fontStyle=0;strokeColor=#C73500;fillColor=#fa6800;fontColor=#ffffff;align=left;" parent="1" vertex="1">
          <mxGeometry x="1782" y="781" width="452" height="60" as="geometry" />
        </mxCell>
        <mxCell id="SC3JEf4WINsSZaT9sH8f-66" style="edgeStyle=orthogonalEdgeStyle;rounded=0;orthogonalLoop=1;jettySize=auto;html=1;exitX=-0.004;exitY=0.545;exitDx=0;exitDy=0;startArrow=classic;startFill=1;endArrow=none;endFill=0;exitPerimeter=0;entryX=0.5;entryY=1;entryDx=0;entryDy=0;" parent="1" source="jS5UeziIzz8t74J8Ag5z-44" target="3Qp2xXLN1smk-MfCKVBW-2" edge="1">
          <mxGeometry relative="1" as="geometry">
            <mxPoint x="1100" y="297" as="targetPoint" />
            <Array as="points">
              <mxPoint x="1094" y="429" />
            </Array>
          </mxGeometry>
        </mxCell>
        <mxCell id="SC3JEf4WINsSZaT9sH8f-76" style="edgeStyle=orthogonalEdgeStyle;rounded=0;orthogonalLoop=1;jettySize=auto;html=1;entryX=0.5;entryY=0;entryDx=0;entryDy=0;startArrow=none;startFill=0;endArrow=classic;endFill=1;" parent="1" edge="1">
          <mxGeometry relative="1" as="geometry">
            <mxPoint x="1419.5" y="456" as="sourcePoint" />
            <mxPoint x="1419.5" y="538.9999999999998" as="targetPoint" />
          </mxGeometry>
        </mxCell>
        <mxCell id="jS5UeziIzz8t74J8Ag5z-44" value="Endereço de Entrega" style="whiteSpace=wrap;html=1;fontStyle=0;strokeColor=#B20000;fillColor=#e51400;fontColor=#ffffff;" parent="1" vertex="1">
          <mxGeometry x="1328" y="396" width="187" height="60" as="geometry" />
        </mxCell>
        <mxCell id="jS5UeziIzz8t74J8Ag5z-46" value="* Mostrar o Endereço de Pagamento como Padrão.&lt;br&gt;* Buscar da API Economy os endereços cadastrados e permitir novo endereço" style="whiteSpace=wrap;html=1;fontStyle=0;strokeColor=#C73500;fillColor=#fa6800;fontColor=#ffffff;align=left;" parent="1" vertex="1">
          <mxGeometry x="1782" y="396" width="496" height="60" as="geometry" />
        </mxCell>
        <mxCell id="jS5UeziIzz8t74J8Ag5z-51" value="" style="edgeStyle=orthogonalEdgeStyle;rounded=0;orthogonalLoop=1;jettySize=auto;html=1;fontSize=13;fontColor=#000000;" parent="1" target="jS5UeziIzz8t74J8Ag5z-50" edge="1">
          <mxGeometry relative="1" as="geometry">
            <mxPoint x="1100" y="813" as="sourcePoint" />
          </mxGeometry>
        </mxCell>
        <mxCell id="jS5UeziIzz8t74J8Ag5z-53" value="" style="edgeStyle=orthogonalEdgeStyle;rounded=0;orthogonalLoop=1;jettySize=auto;html=1;fontSize=13;fontColor=#000000;startArrow=classic;startFill=1;endArrow=none;endFill=0;" parent="1" edge="1">
          <mxGeometry relative="1" as="geometry">
            <mxPoint x="1265" y="813" as="sourcePoint" />
            <mxPoint x="1397" y="841" as="targetPoint" />
            <Array as="points">
              <mxPoint x="1295" y="813" />
              <mxPoint x="1295" y="861" />
              <mxPoint x="1397" y="861" />
              <mxPoint x="1397" y="841" />
            </Array>
          </mxGeometry>
        </mxCell>
        <mxCell id="YiUYvIcf1jTSnU425tms-4" style="edgeStyle=orthogonalEdgeStyle;rounded=0;orthogonalLoop=1;jettySize=auto;html=1;exitX=0.5;exitY=0;exitDx=0;exitDy=0;entryX=0.75;entryY=1;entryDx=0;entryDy=0;startArrow=none;startFill=0;endArrow=classic;endFill=1;" parent="1" source="jS5UeziIzz8t74J8Ag5z-50" target="jS5UeziIzz8t74J8Ag5z-3" edge="1">
          <mxGeometry relative="1" as="geometry" />
        </mxCell>
        <mxCell id="jS5UeziIzz8t74J8Ag5z-50" value="Cadastrar Novo" style="whiteSpace=wrap;html=1;fontSize=13;fontStyle=1;" parent="1" vertex="1">
          <mxGeometry x="901.9999999999999" y="336" width="120" height="60" as="geometry" />
        </mxCell>
        <mxCell id="jS5UeziIzz8t74J8Ag5z-55" style="edgeStyle=orthogonalEdgeStyle;rounded=0;orthogonalLoop=1;jettySize=auto;html=1;entryX=0;entryY=0.5;entryDx=0;entryDy=0;fontSize=13;fontColor=#000000;" parent="1" source="jS5UeziIzz8t74J8Ag5z-52" target="jS5UeziIzz8t74J8Ag5z-54" edge="1">
          <mxGeometry relative="1" as="geometry" />
        </mxCell>
        <mxCell id="jS5UeziIzz8t74J8Ag5z-57" value="" style="edgeStyle=orthogonalEdgeStyle;rounded=0;orthogonalLoop=1;jettySize=auto;html=1;fontSize=13;fontColor=#000000;" parent="1" source="jS5UeziIzz8t74J8Ag5z-52" target="jS5UeziIzz8t74J8Ag5z-56" edge="1">
          <mxGeometry relative="1" as="geometry" />
        </mxCell>
        <mxCell id="jS5UeziIzz8t74J8Ag5z-52" value="Resumo do Pedido: &lt;br&gt;Preço + Frete" style="whiteSpace=wrap;html=1;fontSize=13;fontStyle=0;fillColor=#dae8fc;strokeColor=#6c8ebf;" parent="1" vertex="1">
          <mxGeometry x="1320" y="1231.25" width="176" height="60" as="geometry" />
        </mxCell>
        <mxCell id="jS5UeziIzz8t74J8Ag5z-54" value="&lt;p style=&quot;margin-top: 0pt ; margin-bottom: 0pt ; margin-left: 0in ; text-indent: 0in ; font-size: 14px&quot;&gt;&lt;font face=&quot;calibri&quot; style=&quot;font-size: 14px&quot;&gt;&lt;b&gt;* Tabela de Fretes do SAP (PriceCheck) - Atualização quinzenal.&lt;/b&gt;&lt;/font&gt;&lt;/p&gt;&lt;p style=&quot;margin-top: 0pt ; margin-bottom: 0pt ; margin-left: 0in ; text-indent: 0in ; font-size: 14px&quot;&gt;&lt;font face=&quot;calibri&quot; style=&quot;font-size: 14px&quot;&gt;&lt;b&gt;Origem: Código da Planta (SLZ1)&lt;/b&gt;&lt;/font&gt;&lt;/p&gt;&lt;p style=&quot;margin-top: 0pt ; margin-bottom: 0pt ; margin-left: 0in ; text-indent: 0in ; font-size: 14px&quot;&gt;&lt;font face=&quot;calibri&quot; style=&quot;font-size: 14px&quot;&gt;&lt;b&gt;Destino:&amp;nbsp; Código do Cliente&lt;/b&gt;&lt;/font&gt;&lt;/p&gt;&lt;p style=&quot;margin-top: 0pt ; margin-bottom: 0pt ; margin-left: 0in ; text-indent: 0in ; font-size: 14px&quot;&gt;&lt;font face=&quot;calibri&quot; style=&quot;font-size: 14px&quot;&gt;&lt;b&gt;SKU:&lt;/b&gt;&lt;/font&gt;&lt;/p&gt;&lt;p style=&quot;margin-top: 0pt ; margin-bottom: 0pt ; margin-left: 0in ; text-indent: 0in ; font-size: 14px&quot;&gt;&lt;font face=&quot;calibri&quot; style=&quot;font-size: 14px&quot;&gt;&lt;b&gt;Quantidade:&lt;/b&gt;&lt;/font&gt;&lt;/p&gt;" style="whiteSpace=wrap;html=1;fontStyle=0;strokeColor=#C73500;fillColor=#fa6800;fontColor=#ffffff;align=left;" parent="1" vertex="1">
          <mxGeometry x="1774.5" y="1209.6299999999999" width="496" height="103.25" as="geometry" />
        </mxCell>
        <mxCell id="jS5UeziIzz8t74J8Ag5z-59" value="" style="edgeStyle=orthogonalEdgeStyle;rounded=0;orthogonalLoop=1;jettySize=auto;html=1;fontSize=13;fontColor=#000000;" parent="1" source="jS5UeziIzz8t74J8Ag5z-56" target="jS5UeziIzz8t74J8Ag5z-58" edge="1">
          <mxGeometry relative="1" as="geometry" />
        </mxCell>
        <mxCell id="jS5UeziIzz8t74J8Ag5z-56" value="Fechar Pedido" style="whiteSpace=wrap;html=1;fontSize=13;fontStyle=0;strokeColor=#005700;fillColor=#008a00;fontColor=#ffffff;" parent="1" vertex="1">
          <mxGeometry x="1320" y="1351.25" width="176" height="60" as="geometry" />
        </mxCell>
        <mxCell id="jS5UeziIzz8t74J8Ag5z-58" value="Meio de Pagamento:&amp;nbsp;&lt;br&gt;Gerar Boleto" style="whiteSpace=wrap;html=1;fontSize=13;fontStyle=0;strokeColor=#6c8ebf;fillColor=#dae8fc;" parent="1" vertex="1">
          <mxGeometry x="1320" y="1474" width="176" height="60" as="geometry" />
        </mxCell>
        <mxCell id="YiUYvIcf1jTSnU425tms-49" style="edgeStyle=orthogonalEdgeStyle;rounded=0;orthogonalLoop=1;jettySize=auto;html=1;entryX=0.552;entryY=0;entryDx=0;entryDy=0;entryPerimeter=0;startArrow=none;startFill=0;endArrow=classic;endFill=1;" parent="1" edge="1">
          <mxGeometry relative="1" as="geometry">
            <mxPoint x="1415" y="962" as="sourcePoint" />
            <mxPoint x="1414.0079999999998" y="1001" as="targetPoint" />
          </mxGeometry>
        </mxCell>
        <mxCell id="2mpdW63NxKz5ffvul3Hc-2" value="Ver preço" style="whiteSpace=wrap;html=1;fontStyle=0;strokeColor=#6c8ebf;fillColor=#dae8fc;" parent="1" vertex="1">
          <mxGeometry x="1323" y="902" width="182" height="60" as="geometry" />
        </mxCell>
        <mxCell id="SC3JEf4WINsSZaT9sH8f-1" value="" style="edgeStyle=orthogonalEdgeStyle;rounded=0;orthogonalLoop=1;jettySize=auto;html=1;fontSize=14;fontFamily=Helvetica;" parent="1" source="SC3JEf4WINsSZaT9sH8f-3" target="SC3JEf4WINsSZaT9sH8f-5" edge="1">
          <mxGeometry relative="1" as="geometry" />
        </mxCell>
        <mxCell id="SC3JEf4WINsSZaT9sH8f-2" style="edgeStyle=orthogonalEdgeStyle;rounded=0;orthogonalLoop=1;jettySize=auto;html=1;fontSize=14;fontColor=#000000;fontFamily=Helvetica;" parent="1" source="SC3JEf4WINsSZaT9sH8f-3" target="SC3JEf4WINsSZaT9sH8f-18" edge="1">
          <mxGeometry relative="1" as="geometry" />
        </mxCell>
        <mxCell id="SC3JEf4WINsSZaT9sH8f-3" value="&lt;font style=&quot;font-size: 14px;&quot;&gt;Cliente&lt;/font&gt;" style="rounded=1;whiteSpace=wrap;html=1;fillColor=#dae8fc;strokeColor=#6c8ebf;fontSize=14;fontStyle=1;fontFamily=Helvetica;" parent="1" vertex="1">
          <mxGeometry x="-2761" y="-176.69" width="120" height="60" as="geometry" />
        </mxCell>
        <mxCell id="SC3JEf4WINsSZaT9sH8f-4" style="edgeStyle=orthogonalEdgeStyle;rounded=0;orthogonalLoop=1;jettySize=auto;html=1;entryX=0.5;entryY=0;entryDx=0;entryDy=0;fontSize=14;fontFamily=Helvetica;" parent="1" source="SC3JEf4WINsSZaT9sH8f-5" target="SC3JEf4WINsSZaT9sH8f-8" edge="1">
          <mxGeometry relative="1" as="geometry" />
        </mxCell>
        <mxCell id="SC3JEf4WINsSZaT9sH8f-5" value="&lt;font style=&quot;font-size: 14px;&quot;&gt;Seleciona&lt;br style=&quot;font-size: 14px;&quot;&gt;UF/Cidade&lt;/font&gt;" style="shape=trapezoid;perimeter=trapezoidPerimeter;whiteSpace=wrap;html=1;fixedSize=1;rounded=1;fillColor=#f0a30a;strokeColor=#BD7000;fontColor=#ffffff;fontSize=14;fontFamily=Helvetica;" parent="1" vertex="1">
          <mxGeometry x="-2441" y="-176.69" width="120" height="60" as="geometry" />
        </mxCell>
        <mxCell id="SC3JEf4WINsSZaT9sH8f-6" value="" style="edgeStyle=orthogonalEdgeStyle;rounded=0;orthogonalLoop=1;jettySize=auto;html=1;fontSize=14;fontFamily=Helvetica;" parent="1" source="SC3JEf4WINsSZaT9sH8f-8" target="SC3JEf4WINsSZaT9sH8f-9" edge="1">
          <mxGeometry relative="1" as="geometry" />
        </mxCell>
        <mxCell id="SC3JEf4WINsSZaT9sH8f-7" value="S" style="edgeStyle=orthogonalEdgeStyle;rounded=0;orthogonalLoop=1;jettySize=auto;html=1;fontSize=14;fontFamily=Helvetica;" parent="1" source="SC3JEf4WINsSZaT9sH8f-8" target="SC3JEf4WINsSZaT9sH8f-14" edge="1">
          <mxGeometry relative="1" as="geometry" />
        </mxCell>
        <mxCell id="SC3JEf4WINsSZaT9sH8f-8" value="&lt;font style=&quot;font-size: 14px&quot;&gt;&lt;b style=&quot;font-size: 14px&quot;&gt;Cidade &lt;br style=&quot;font-size: 14px&quot;&gt;c\ Frete&lt;/b&gt;&lt;/font&gt;" style="rhombus;whiteSpace=wrap;html=1;fontSize=14;fontFamily=Helvetica;" parent="1" vertex="1">
          <mxGeometry x="-2446" y="-66.69" width="130" height="90" as="geometry" />
        </mxCell>
        <mxCell id="SC3JEf4WINsSZaT9sH8f-9" value="&lt;font style=&quot;font-size: 14px;&quot;&gt;Redirecionar para Centro de Controle de Leads&lt;/font&gt;" style="whiteSpace=wrap;html=1;fillColor=#dae8fc;strokeColor=#6c8ebf;fontSize=14;fontFamily=Helvetica;" parent="1" vertex="1">
          <mxGeometry x="-2231" y="-51.69" width="190" height="60" as="geometry" />
        </mxCell>
        <mxCell id="SC3JEf4WINsSZaT9sH8f-10" value="&lt;div style=&quot;font-size: 14px;&quot;&gt;1. Mostrar mensagem de produtos indisponíveis para a região.&lt;/div&gt;&lt;div style=&quot;font-size: 14px;&quot;&gt;2. Registrar casos de cidades sem frete/abrir ticket no SNOW&lt;/div&gt;" style="text;html=1;fillColor=#fa6800;align=center;verticalAlign=middle;whiteSpace=wrap;rounded=0;fontStyle=1;strokeColor=#C73500;fontColor=#ffffff;fontSize=14;fontFamily=Helvetica;" parent="1" vertex="1">
          <mxGeometry x="-2231" y="-111.69" width="420" height="45" as="geometry" />
        </mxCell>
        <mxCell id="SC3JEf4WINsSZaT9sH8f-12" value="" style="edgeStyle=orthogonalEdgeStyle;rounded=0;orthogonalLoop=1;jettySize=auto;html=1;fontSize=14;fontColor=#000000;exitX=0;exitY=0.5;exitDx=0;exitDy=0;entryX=1;entryY=0.5;entryDx=0;entryDy=0;fontFamily=Helvetica;" parent="1" source="SC3JEf4WINsSZaT9sH8f-15" target="SC3JEf4WINsSZaT9sH8f-18" edge="1">
          <mxGeometry relative="1" as="geometry" />
        </mxCell>
        <mxCell id="ZyZWIug1i_7abqR-xJH1-70" value="" style="edgeStyle=orthogonalEdgeStyle;rounded=0;orthogonalLoop=1;jettySize=auto;html=1;fontSize=14;fontFamily=Helvetica;" parent="1" source="SC3JEf4WINsSZaT9sH8f-14" target="ZyZWIug1i_7abqR-xJH1-69" edge="1">
          <mxGeometry relative="1" as="geometry" />
        </mxCell>
        <mxCell id="k7qJe9tMdCRVFwdtE0tW-5" style="edgeStyle=orthogonalEdgeStyle;rounded=0;orthogonalLoop=1;jettySize=auto;html=1;fontSize=13;" parent="1" source="SC3JEf4WINsSZaT9sH8f-14" target="k7qJe9tMdCRVFwdtE0tW-4" edge="1">
          <mxGeometry relative="1" as="geometry" />
        </mxCell>
        <mxCell id="SC3JEf4WINsSZaT9sH8f-14" value="&lt;p style=&quot;margin-top: 0pt ; margin-bottom: 0pt ; margin-left: 0in ; text-indent: 0in ; font-size: 14px&quot;&gt;&lt;font style=&quot;font-size: 14px&quot;&gt;&lt;b style=&quot;font-size: 14px&quot;&gt;Navegação em Produtos&lt;/b&gt;&lt;/font&gt;&lt;/p&gt;&lt;p style=&quot;margin-top: 0pt ; margin-bottom: 0pt ; margin-left: 0in ; text-indent: 0in ; font-size: 14px&quot;&gt;&lt;font style=&quot;font-size: 14px&quot;&gt;&lt;b style=&quot;font-size: 14px&quot;&gt;(SEM visualização de preços)&lt;/b&gt;&lt;/font&gt;&lt;/p&gt;" style="whiteSpace=wrap;html=1;fillColor=#e51400;strokeColor=#B20000;fontStyle=0;fontSize=14;fontFamily=Helvetica;fontColor=#ffffff;" parent="1" vertex="1">
          <mxGeometry x="-2551" y="90.31" width="340" height="85" as="geometry" />
        </mxCell>
        <mxCell id="SC3JEf4WINsSZaT9sH8f-15" value="Checkout&lt;br style=&quot;font-size: 14px;&quot;&gt;(Comprar Produto)" style="whiteSpace=wrap;html=1;fontStyle=0;strokeColor=#6c8ebf;fillColor=#dae8fc;fontSize=14;fontFamily=Helvetica;" parent="1" vertex="1">
          <mxGeometry x="-2441" y="628.31" width="120" height="60" as="geometry" />
        </mxCell>
        <mxCell id="SC3JEf4WINsSZaT9sH8f-18" value="Autentica/Cadastra Cliente&lt;br style=&quot;font-size: 14px;&quot;&gt;&lt;span style=&quot;font-size: 14px;&quot;&gt;(API Economy)&lt;/span&gt;" style="whiteSpace=wrap;html=1;fontStyle=1;strokeColor=#6c8ebf;fillColor=#dae8fc;fontSize=14;fontFamily=Helvetica;" parent="1" vertex="1">
          <mxGeometry x="-2799.5" y="628.31" width="197" height="60" as="geometry" />
        </mxCell>
        <mxCell id="SC3JEf4WINsSZaT9sH8f-21" value="" style="edgeStyle=orthogonalEdgeStyle;rounded=0;orthogonalLoop=1;jettySize=auto;html=1;fontSize=14;fontColor=#000000;fontFamily=Helvetica;" parent="1" source="SC3JEf4WINsSZaT9sH8f-23" target="SC3JEf4WINsSZaT9sH8f-27" edge="1">
          <mxGeometry relative="1" as="geometry" />
        </mxCell>
        <mxCell id="sLcBwwiViFwoJUJywKog-9" style="edgeStyle=orthogonalEdgeStyle;rounded=0;orthogonalLoop=1;jettySize=auto;html=1;exitX=0.25;exitY=0;exitDx=0;exitDy=0;" parent="1" source="SC3JEf4WINsSZaT9sH8f-23" target="w89-vKPUMR_P6JWfKxBr-1" edge="1">
          <mxGeometry relative="1" as="geometry">
            <mxPoint x="-3663" y="855.81" as="targetPoint" />
            <Array as="points">
              <mxPoint x="-3510" y="866.81" />
              <mxPoint x="-3663" y="866.81" />
            </Array>
          </mxGeometry>
        </mxCell>
        <mxCell id="SC3JEf4WINsSZaT9sH8f-23" value="Meus Pedidos Online" style="whiteSpace=wrap;html=1;fontStyle=0;strokeColor=#6c8ebf;fillColor=#dae8fc;fontSize=14;fontFamily=Helvetica;" parent="1" vertex="1">
          <mxGeometry x="-3540" y="938.18" width="120" height="60" as="geometry" />
        </mxCell>
        <mxCell id="SC3JEf4WINsSZaT9sH8f-24" value="" style="edgeStyle=orthogonalEdgeStyle;rounded=0;orthogonalLoop=1;jettySize=auto;html=1;fontSize=14;fontColor=#000000;fontFamily=Helvetica;" parent="1" source="SC3JEf4WINsSZaT9sH8f-27" target="SC3JEf4WINsSZaT9sH8f-28" edge="1">
          <mxGeometry relative="1" as="geometry" />
        </mxCell>
        <mxCell id="SC3JEf4WINsSZaT9sH8f-25" value="" style="edgeStyle=orthogonalEdgeStyle;rounded=0;orthogonalLoop=1;jettySize=auto;html=1;fontSize=14;fontColor=#000000;fontFamily=Helvetica;entryX=0.454;entryY=-0.058;entryDx=0;entryDy=0;entryPerimeter=0;" parent="1" source="SC3JEf4WINsSZaT9sH8f-27" target="SC3JEf4WINsSZaT9sH8f-29" edge="1">
          <mxGeometry relative="1" as="geometry">
            <Array as="points">
              <mxPoint x="-3480" y="1179.6799999999998" />
              <mxPoint x="-3537" y="1179.6799999999998" />
              <mxPoint x="-3537" y="1212.6799999999998" />
              <mxPoint x="-3641" y="1212.6799999999998" />
            </Array>
          </mxGeometry>
        </mxCell>
        <mxCell id="k7qJe9tMdCRVFwdtE0tW-2" style="edgeStyle=orthogonalEdgeStyle;rounded=0;orthogonalLoop=1;jettySize=auto;html=1;" parent="1" source="SC3JEf4WINsSZaT9sH8f-27" target="Llw6ylmcB_U-CpbHDsIA-104" edge="1">
          <mxGeometry relative="1" as="geometry" />
        </mxCell>
        <mxCell id="sLcBwwiViFwoJUJywKog-11" style="edgeStyle=orthogonalEdgeStyle;rounded=0;orthogonalLoop=1;jettySize=auto;html=1;entryX=0;entryY=0.5;entryDx=0;entryDy=0;fontSize=14;" parent="1" source="SC3JEf4WINsSZaT9sH8f-27" target="sLcBwwiViFwoJUJywKog-10" edge="1">
          <mxGeometry relative="1" as="geometry" />
        </mxCell>
        <mxCell id="SC3JEf4WINsSZaT9sH8f-27" value="Visualizar Pedido" style="whiteSpace=wrap;html=1;fontStyle=0;strokeColor=#6c8ebf;fillColor=#dae8fc;fontSize=14;fontFamily=Helvetica;" parent="1" vertex="1">
          <mxGeometry x="-3540" y="1078.1799999999998" width="120" height="60" as="geometry" />
        </mxCell>
        <mxCell id="SC3JEf4WINsSZaT9sH8f-28" value="Imprimir Segunda Via" style="whiteSpace=wrap;html=1;fontStyle=0;strokeColor=#6c8ebf;fillColor=#dae8fc;fontSize=14;fontFamily=Helvetica;" parent="1" vertex="1">
          <mxGeometry x="-3740" y="1078.1799999999998" width="120" height="60" as="geometry" />
        </mxCell>
        <mxCell id="SC3JEf4WINsSZaT9sH8f-29" value="Status do Pedido" style="whiteSpace=wrap;html=1;fontStyle=0;strokeColor=#6c8ebf;fillColor=#dae8fc;fontSize=14;fontFamily=Helvetica;" parent="1" vertex="1">
          <mxGeometry x="-3696" y="1228.6799999999998" width="120" height="60" as="geometry" />
        </mxCell>
        <mxCell id="SC3JEf4WINsSZaT9sH8f-32" value="" style="edgeStyle=orthogonalEdgeStyle;rounded=0;orthogonalLoop=1;jettySize=auto;html=1;fontSize=14;fontColor=#000000;fontFamily=Helvetica;" parent="1" source="SC3JEf4WINsSZaT9sH8f-33" target="SC3JEf4WINsSZaT9sH8f-39" edge="1">
          <mxGeometry relative="1" as="geometry" />
        </mxCell>
        <mxCell id="k7qJe9tMdCRVFwdtE0tW-3" style="edgeStyle=orthogonalEdgeStyle;rounded=0;orthogonalLoop=1;jettySize=auto;html=1;exitX=1;exitY=0.25;exitDx=0;exitDy=0;" parent="1" source="SC3JEf4WINsSZaT9sH8f-33" target="SC3JEf4WINsSZaT9sH8f-35" edge="1">
          <mxGeometry relative="1" as="geometry" />
        </mxCell>
        <mxCell id="SC3JEf4WINsSZaT9sH8f-33" value="Ver carrinho, &lt;b&gt;PREÇO&lt;/b&gt; e ajustar Pedido" style="whiteSpace=wrap;html=1;fontStyle=0;strokeColor=#6c8ebf;fillColor=#dae8fc;fontSize=14;fontFamily=Helvetica;" parent="1" vertex="1">
          <mxGeometry x="-2451" y="749.81" width="154" height="121" as="geometry" />
        </mxCell>
        <mxCell id="sLcBwwiViFwoJUJywKog-12" style="edgeStyle=orthogonalEdgeStyle;rounded=0;orthogonalLoop=1;jettySize=auto;html=1;fontSize=14;entryX=0;entryY=0.5;entryDx=0;entryDy=0;" parent="1" source="SC3JEf4WINsSZaT9sH8f-35" target="sLcBwwiViFwoJUJywKog-13" edge="1">
          <mxGeometry relative="1" as="geometry">
            <mxPoint x="-1529" y="692.81" as="targetPoint" />
          </mxGeometry>
        </mxCell>
        <mxCell id="SC3JEf4WINsSZaT9sH8f-35" value="&lt;div style=&quot;font-size: 14px&quot;&gt;&lt;b&gt;PRICING:&lt;/b&gt;&lt;/div&gt;&lt;div style=&quot;font-size: 14px&quot;&gt;&lt;b&gt;&lt;br&gt;&lt;/b&gt;&lt;/div&gt;&lt;div style=&quot;font-size: 14px&quot;&gt;* Lista de preços de pricing alimenta os produtos disponíveis.&lt;/div&gt;&lt;div style=&quot;font-size: 14px&quot;&gt;* SKU: Utilizar o código do material SAP no gerenciamento dos produtos.&lt;/div&gt;&lt;div style=&quot;font-size: 14px&quot;&gt;&lt;span style=&quot;font-size: 14px&quot;&gt;* Utilização de Imposto Médio de MA estará no preço final do Produto atualizado por Pricing&lt;/span&gt;&lt;br style=&quot;font-size: 14px&quot;&gt;&lt;/div&gt;&lt;div style=&quot;font-size: 14px&quot;&gt;&lt;br&gt;&lt;/div&gt;" style="whiteSpace=wrap;html=1;fontStyle=0;strokeColor=#C73500;fillColor=#fa6800;fontColor=#ffffff;align=left;fontSize=14;fontFamily=Helvetica;" parent="1" vertex="1">
          <mxGeometry x="-2179.5" y="722.81" width="539" height="114" as="geometry" />
        </mxCell>
        <mxCell id="SC3JEf4WINsSZaT9sH8f-36" value="&lt;div style=&quot;font-size: 14px;&quot;&gt;MVP: DEFINIÇÃO: Trazer histórico de pedidos feitos em outras plataformas.&lt;/div&gt;&lt;div style=&quot;font-size: 14px;&quot;&gt;- Realizar sicronização ce pedidos com SAP: Baixa de pagamento e bloqueio.&lt;/div&gt;" style="whiteSpace=wrap;html=1;fontStyle=0;strokeColor=#C73500;fillColor=#fa6800;fontColor=#ffffff;fontSize=14;fontFamily=Helvetica;" parent="1" vertex="1">
          <mxGeometry x="-4103" y="904.68" width="483" height="93.5" as="geometry" />
        </mxCell>
        <mxCell id="SC3JEf4WINsSZaT9sH8f-37" value="" style="edgeStyle=orthogonalEdgeStyle;rounded=0;orthogonalLoop=1;jettySize=auto;html=1;fontSize=14;fontColor=#000000;fontFamily=Helvetica;" parent="1" source="SC3JEf4WINsSZaT9sH8f-39" target="SC3JEf4WINsSZaT9sH8f-40" edge="1">
          <mxGeometry relative="1" as="geometry" />
        </mxCell>
        <mxCell id="SC3JEf4WINsSZaT9sH8f-38" value="" style="edgeStyle=orthogonalEdgeStyle;rounded=0;orthogonalLoop=1;jettySize=auto;html=1;fontSize=14;fontColor=#000000;fontFamily=Helvetica;" parent="1" source="SC3JEf4WINsSZaT9sH8f-39" target="SC3JEf4WINsSZaT9sH8f-43" edge="1">
          <mxGeometry relative="1" as="geometry" />
        </mxCell>
        <mxCell id="SC3JEf4WINsSZaT9sH8f-39" value="Selecionar Embalagem&lt;br style=&quot;font-size: 14px;&quot;&gt;(Big Bag)" style="whiteSpace=wrap;html=1;fontStyle=0;strokeColor=#6c8ebf;fillColor=#dae8fc;fontSize=14;fontFamily=Helvetica;" parent="1" vertex="1">
          <mxGeometry x="-2438.5" y="1018.19" width="120" height="60" as="geometry" />
        </mxCell>
        <mxCell id="SC3JEf4WINsSZaT9sH8f-40" value="&lt;div style=&quot;font-size: 14px;&quot;&gt;* MVP: Mostra somente opção de Big Bag, preparando no futuro para novas opções.&lt;/div&gt;&lt;div style=&quot;font-size: 14px;&quot;&gt;* Ao alterar embalagem, será alterado o SKU.&lt;/div&gt;&lt;div style=&quot;font-size: 14px;&quot;&gt;* Tipo de embalagem está configurada na lista de preços.&lt;/div&gt;" style="whiteSpace=wrap;html=1;fontStyle=0;strokeColor=#C73500;fillColor=#fa6800;fontColor=#ffffff;align=left;spacingLeft=5;fontSize=14;fontFamily=Helvetica;" parent="1" vertex="1">
          <mxGeometry x="-2194" y="1018.1899999999999" width="539" height="60" as="geometry" />
        </mxCell>
        <mxCell id="SC3JEf4WINsSZaT9sH8f-41" value="" style="edgeStyle=orthogonalEdgeStyle;rounded=0;orthogonalLoop=1;jettySize=auto;html=1;fontSize=14;fontColor=#000000;fontFamily=Helvetica;" parent="1" source="SC3JEf4WINsSZaT9sH8f-43" target="SC3JEf4WINsSZaT9sH8f-44" edge="1">
          <mxGeometry relative="1" as="geometry" />
        </mxCell>
        <mxCell id="ZyZWIug1i_7abqR-xJH1-56" style="edgeStyle=orthogonalEdgeStyle;rounded=0;orthogonalLoop=1;jettySize=auto;html=1;entryX=0.5;entryY=0;entryDx=0;entryDy=0;fontSize=14;fontFamily=Helvetica;" parent="1" source="SC3JEf4WINsSZaT9sH8f-43" target="SC3JEf4WINsSZaT9sH8f-55" edge="1">
          <mxGeometry relative="1" as="geometry" />
        </mxCell>
        <mxCell id="SC3JEf4WINsSZaT9sH8f-43" value="Selecionar&lt;br style=&quot;font-size: 14px;&quot;&gt;DeliveryDate&lt;br style=&quot;font-size: 14px;&quot;&gt;(Pricing List)" style="whiteSpace=wrap;html=1;fontStyle=0;strokeColor=#6c8ebf;fillColor=#dae8fc;fontSize=14;fontFamily=Helvetica;" parent="1" vertex="1">
          <mxGeometry x="-2466.5" y="1159.68" width="176" height="60" as="geometry" />
        </mxCell>
        <mxCell id="SC3JEf4WINsSZaT9sH8f-44" value="&lt;div style=&quot;font-size: 14px;&quot;&gt;* MVP: Permitir &quot;Delivery Date&quot; para cada item do Pedido.&amp;nbsp;&lt;/div&gt;&lt;div style=&quot;font-size: 14px;&quot;&gt;- Data Mínima: segunda segunda-feira após o vencimento do boleto. (S+2)&lt;/div&gt;&lt;div style=&quot;font-size: 14px;&quot;&gt;&amp;nbsp;&lt;/div&gt;&lt;div style=&quot;font-size: 14px;&quot;&gt;- ETA: Semana aproximada para o Delivery Date.&lt;/div&gt;&lt;div style=&quot;font-size: 14px;&quot;&gt;- MVP: Não teremos &quot;Location&quot; para cada item do pedido.&lt;/div&gt;" style="whiteSpace=wrap;html=1;fontStyle=0;strokeColor=#C73500;fillColor=#fa6800;fontColor=#ffffff;align=left;fontSize=14;fontFamily=Helvetica;" parent="1" vertex="1">
          <mxGeometry x="-2193" y="1129.99" width="566" height="119.37" as="geometry" />
        </mxCell>
        <mxCell id="ZyZWIug1i_7abqR-xJH1-66" value="" style="edgeStyle=orthogonalEdgeStyle;rounded=0;orthogonalLoop=1;jettySize=auto;html=1;fontSize=14;fontFamily=Helvetica;" parent="1" source="SC3JEf4WINsSZaT9sH8f-52" target="ZyZWIug1i_7abqR-xJH1-65" edge="1">
          <mxGeometry relative="1" as="geometry" />
        </mxCell>
        <mxCell id="SC3JEf4WINsSZaT9sH8f-52" value="Gereciamento de Filiais" style="whiteSpace=wrap;html=1;fontSize=14;fontStyle=1;fillColor=#dae8fc;strokeColor=#6c8ebf;fontFamily=Helvetica;" parent="1" vertex="1">
          <mxGeometry x="-3245" y="494.06" width="120" height="60" as="geometry" />
        </mxCell>
        <mxCell id="SC3JEf4WINsSZaT9sH8f-53" style="edgeStyle=orthogonalEdgeStyle;rounded=0;orthogonalLoop=1;jettySize=auto;html=1;entryX=0;entryY=0.5;entryDx=0;entryDy=0;fontSize=14;fontColor=#000000;fontFamily=Helvetica;" parent="1" source="SC3JEf4WINsSZaT9sH8f-55" target="SC3JEf4WINsSZaT9sH8f-56" edge="1">
          <mxGeometry relative="1" as="geometry" />
        </mxCell>
        <mxCell id="SC3JEf4WINsSZaT9sH8f-54" value="" style="edgeStyle=orthogonalEdgeStyle;rounded=0;orthogonalLoop=1;jettySize=auto;html=1;fontSize=14;fontColor=#000000;fontFamily=Helvetica;" parent="1" source="SC3JEf4WINsSZaT9sH8f-55" target="SC3JEf4WINsSZaT9sH8f-58" edge="1">
          <mxGeometry relative="1" as="geometry" />
        </mxCell>
        <mxCell id="SC3JEf4WINsSZaT9sH8f-55" value="Resumo do Pedido: &lt;br style=&quot;font-size: 14px;&quot;&gt;Preço + Frete" style="whiteSpace=wrap;html=1;fontSize=14;fontStyle=0;fillColor=#dae8fc;strokeColor=#6c8ebf;fontFamily=Helvetica;" parent="1" vertex="1">
          <mxGeometry x="-2479.5" y="1398.94" width="201" height="60" as="geometry" />
        </mxCell>
        <mxCell id="0uTU3GbLn5igYx63vfDj-19" value="" style="edgeStyle=orthogonalEdgeStyle;rounded=0;orthogonalLoop=1;jettySize=auto;html=1;fontSize=14;fontFamily=Helvetica;" parent="1" source="SC3JEf4WINsSZaT9sH8f-56" target="0uTU3GbLn5igYx63vfDj-18" edge="1">
          <mxGeometry relative="1" as="geometry" />
        </mxCell>
        <mxCell id="SC3JEf4WINsSZaT9sH8f-56" value="&lt;p style=&quot;margin-top: 0pt; margin-bottom: 0pt; margin-left: 0in; text-indent: 0in; font-size: 14px;&quot;&gt;&lt;font style=&quot;font-size: 14px;&quot;&gt;&lt;b style=&quot;font-size: 14px;&quot;&gt;* Tabela de Fretes do SAP (PriceCheck) - Atualização quinzenal.&lt;/b&gt;&lt;/font&gt;&lt;/p&gt;&lt;p style=&quot;margin-top: 0pt; margin-bottom: 0pt; margin-left: 0in; text-indent: 0in; font-size: 14px;&quot;&gt;&lt;font style=&quot;font-size: 14px;&quot;&gt;&lt;b style=&quot;font-size: 14px;&quot;&gt;Origem: Código da Planta (SLZ1)&lt;/b&gt;&lt;/font&gt;&lt;/p&gt;&lt;p style=&quot;margin-top: 0pt; margin-bottom: 0pt; margin-left: 0in; text-indent: 0in; font-size: 14px;&quot;&gt;&lt;font style=&quot;font-size: 14px;&quot;&gt;&lt;b style=&quot;font-size: 14px;&quot;&gt;Destino:&amp;nbsp; Código do Cliente&lt;/b&gt;&lt;/font&gt;&lt;/p&gt;&lt;p style=&quot;margin-top: 0pt; margin-bottom: 0pt; margin-left: 0in; text-indent: 0in; font-size: 14px;&quot;&gt;&lt;font style=&quot;font-size: 14px;&quot;&gt;&lt;b style=&quot;font-size: 14px;&quot;&gt;SKU:&lt;/b&gt;&lt;/font&gt;&lt;/p&gt;&lt;p style=&quot;margin-top: 0pt; margin-bottom: 0pt; margin-left: 0in; text-indent: 0in; font-size: 14px;&quot;&gt;&lt;font style=&quot;font-size: 14px;&quot;&gt;&lt;b style=&quot;font-size: 14px;&quot;&gt;Quantidade:&lt;/b&gt;&lt;/font&gt;&lt;/p&gt;" style="whiteSpace=wrap;html=1;fontStyle=0;strokeColor=#C73500;fillColor=#fa6800;fontColor=#ffffff;align=left;spacingLeft=5;fontSize=14;fontFamily=Helvetica;" parent="1" vertex="1">
          <mxGeometry x="-2194" y="1377.31" width="496" height="103.25" as="geometry" />
        </mxCell>
        <mxCell id="SC3JEf4WINsSZaT9sH8f-57" value="" style="edgeStyle=orthogonalEdgeStyle;rounded=0;orthogonalLoop=1;jettySize=auto;html=1;fontSize=14;fontColor=#000000;fontFamily=Helvetica;" parent="1" source="SC3JEf4WINsSZaT9sH8f-58" target="SC3JEf4WINsSZaT9sH8f-59" edge="1">
          <mxGeometry relative="1" as="geometry" />
        </mxCell>
        <mxCell id="SC3JEf4WINsSZaT9sH8f-58" value="Fechar Pedido" style="whiteSpace=wrap;html=1;fontSize=14;fontStyle=1;strokeColor=#005700;fillColor=#008a00;fontColor=#ffffff;fontFamily=Helvetica;" parent="1" vertex="1">
          <mxGeometry x="-2438.5" y="1598.69" width="120" height="60" as="geometry" />
        </mxCell>
        <mxCell id="qlnjHwctC9TvnMz6O5r_-2" value="" style="edgeStyle=orthogonalEdgeStyle;rounded=0;orthogonalLoop=1;jettySize=auto;html=1;fontSize=14;fontFamily=Helvetica;" parent="1" source="SC3JEf4WINsSZaT9sH8f-59" target="qlnjHwctC9TvnMz6O5r_-1" edge="1">
          <mxGeometry relative="1" as="geometry" />
        </mxCell>
        <mxCell id="SC3JEf4WINsSZaT9sH8f-59" value="Meio de Pagamento:&amp;nbsp;&lt;br style=&quot;font-size: 14px;&quot;&gt;Gerar Boleto (D+1)" style="whiteSpace=wrap;html=1;fontSize=14;fontStyle=0;strokeColor=#6c8ebf;fillColor=#dae8fc;fontFamily=Helvetica;" parent="1" vertex="1">
          <mxGeometry x="-2488" y="1741.69" width="220" height="60" as="geometry" />
        </mxCell>
        <mxCell id="SC3JEf4WINsSZaT9sH8f-61" style="edgeStyle=orthogonalEdgeStyle;rounded=0;orthogonalLoop=1;jettySize=auto;html=1;entryX=0.5;entryY=0;entryDx=0;entryDy=0;" parent="1" source="SC3JEf4WINsSZaT9sH8f-60" target="SC3JEf4WINsSZaT9sH8f-64" edge="1">
          <mxGeometry relative="1" as="geometry">
            <mxPoint x="1414" y="210" as="targetPoint" />
          </mxGeometry>
        </mxCell>
        <mxCell id="SC3JEf4WINsSZaT9sH8f-60" value="Yara Brazil" style="ellipse;whiteSpace=wrap;html=1;aspect=fixed;" parent="1" vertex="1">
          <mxGeometry x="1374" y="44" width="80" height="80" as="geometry" />
        </mxCell>
        <mxCell id="SC3JEf4WINsSZaT9sH8f-67" style="edgeStyle=orthogonalEdgeStyle;rounded=0;orthogonalLoop=1;jettySize=auto;html=1;entryX=0.46;entryY=0.014;entryDx=0;entryDy=0;entryPerimeter=0;startArrow=none;startFill=0;endArrow=classic;endFill=1;" parent="1" source="SC3JEf4WINsSZaT9sH8f-64" target="jS5UeziIzz8t74J8Ag5z-44" edge="1">
          <mxGeometry relative="1" as="geometry" />
        </mxCell>
        <mxCell id="YiUYvIcf1jTSnU425tms-48" style="edgeStyle=orthogonalEdgeStyle;rounded=0;orthogonalLoop=1;jettySize=auto;html=1;exitX=0;exitY=1;exitDx=0;exitDy=0;entryX=1;entryY=0.5;entryDx=0;entryDy=0;startArrow=none;startFill=0;endArrow=classic;endFill=1;" parent="1" source="SC3JEf4WINsSZaT9sH8f-64" target="jS5UeziIzz8t74J8Ag5z-50" edge="1">
          <mxGeometry relative="1" as="geometry">
            <Array as="points">
              <mxPoint x="1373" y="366" />
            </Array>
          </mxGeometry>
        </mxCell>
        <mxCell id="SC3JEf4WINsSZaT9sH8f-64" value="&lt;span style=&quot;font-size: 14px&quot;&gt;&lt;b&gt;Modal &lt;br&gt;login / Register&lt;/b&gt;&lt;/span&gt;" style="rhombus;whiteSpace=wrap;html=1;fillColor=#fff2cc;strokeColor=#d6b656;" parent="1" vertex="1">
          <mxGeometry x="1332.39" y="183.5" width="163.22" height="113" as="geometry" />
        </mxCell>
        <mxCell id="SC3JEf4WINsSZaT9sH8f-68" value="YES" style="text;html=1;strokeColor=none;fillColor=none;align=center;verticalAlign=middle;whiteSpace=wrap;rounded=0;" parent="1" vertex="1">
          <mxGeometry x="1265" y="210" width="40" height="20" as="geometry" />
        </mxCell>
        <mxCell id="SC3JEf4WINsSZaT9sH8f-70" value="SKIP" style="text;html=1;strokeColor=none;fillColor=none;align=center;verticalAlign=middle;whiteSpace=wrap;rounded=0;" parent="1" vertex="1">
          <mxGeometry x="1423" y="325" width="40" height="20" as="geometry" />
        </mxCell>
        <mxCell id="SC3JEf4WINsSZaT9sH8f-73" value="Login with Portal do Cliente Credentials" style="text;html=1;strokeColor=none;fillColor=none;align=center;verticalAlign=middle;whiteSpace=wrap;rounded=0;" parent="1" vertex="1">
          <mxGeometry x="1201" y="257" width="110" height="20" as="geometry" />
        </mxCell>
        <mxCell id="SC3JEf4WINsSZaT9sH8f-78" style="edgeStyle=orthogonalEdgeStyle;rounded=0;orthogonalLoop=1;jettySize=auto;html=1;entryX=0;entryY=0.5;entryDx=0;entryDy=0;startArrow=none;startFill=0;endArrow=classic;endFill=1;" parent="1" source="SC3JEf4WINsSZaT9sH8f-75" target="jS5UeziIzz8t74J8Ag5z-31" edge="1">
          <mxGeometry relative="1" as="geometry" />
        </mxCell>
        <mxCell id="SC3JEf4WINsSZaT9sH8f-80" style="edgeStyle=orthogonalEdgeStyle;rounded=0;orthogonalLoop=1;jettySize=auto;html=1;entryX=0.5;entryY=0;entryDx=0;entryDy=0;startArrow=none;startFill=0;endArrow=classic;endFill=1;" parent="1" edge="1">
          <mxGeometry relative="1" as="geometry">
            <mxPoint x="1419.5" y="599" as="sourcePoint" />
            <mxPoint x="1419.5" y="660" as="targetPoint" />
          </mxGeometry>
        </mxCell>
        <mxCell id="SC3JEf4WINsSZaT9sH8f-75" value="Browse available products and select one" style="whiteSpace=wrap;html=1;fontStyle=0;strokeColor=#6c8ebf;fillColor=#dae8fc;" parent="1" vertex="1">
          <mxGeometry x="1328" y="539" width="187" height="60" as="geometry" />
        </mxCell>
        <mxCell id="SC3JEf4WINsSZaT9sH8f-79" value="Set Quantity&lt;br&gt;- 37 tons truck&lt;br&gt;- 48 tons truck" style="whiteSpace=wrap;html=1;fontStyle=0;strokeColor=#6c8ebf;fillColor=#dae8fc;" parent="1" vertex="1">
          <mxGeometry x="1328" y="660" width="187" height="60" as="geometry" />
        </mxCell>
        <mxCell id="YiUYvIcf1jTSnU425tms-3" value="&lt;span style=&quot;font-size: 14px&quot;&gt;&lt;b&gt;Modal &lt;br&gt;login / Register&lt;/b&gt;&lt;/span&gt;" style="rhombus;whiteSpace=wrap;html=1;fillColor=#fff2cc;strokeColor=#d6b656;" parent="1" vertex="1">
          <mxGeometry x="1101.7800000000002" y="756" width="163.22" height="113" as="geometry" />
        </mxCell>
        <mxCell id="YiUYvIcf1jTSnU425tms-35" value="" style="edgeStyle=orthogonalEdgeStyle;rounded=0;orthogonalLoop=1;jettySize=auto;html=1;fontSize=13;fontColor=#000000;" parent="1" source="YiUYvIcf1jTSnU425tms-36" target="YiUYvIcf1jTSnU425tms-39" edge="1">
          <mxGeometry relative="1" as="geometry" />
        </mxCell>
        <mxCell id="YiUYvIcf1jTSnU425tms-36" value="Histórico de Pedidos" style="whiteSpace=wrap;html=1;fontStyle=0;strokeColor=#6c8ebf;fillColor=#dae8fc;" parent="1" vertex="1">
          <mxGeometry x="542" y="325" width="120" height="60" as="geometry" />
        </mxCell>
        <mxCell id="YiUYvIcf1jTSnU425tms-37" value="" style="edgeStyle=orthogonalEdgeStyle;rounded=0;orthogonalLoop=1;jettySize=auto;html=1;fontSize=13;fontColor=#000000;" parent="1" source="YiUYvIcf1jTSnU425tms-39" target="YiUYvIcf1jTSnU425tms-43" edge="1">
          <mxGeometry relative="1" as="geometry" />
        </mxCell>
        <mxCell id="YiUYvIcf1jTSnU425tms-38" value="" style="edgeStyle=orthogonalEdgeStyle;rounded=0;orthogonalLoop=1;jettySize=auto;html=1;fontSize=13;fontColor=#000000;" parent="1" source="YiUYvIcf1jTSnU425tms-39" target="YiUYvIcf1jTSnU425tms-47" edge="1">
          <mxGeometry relative="1" as="geometry" />
        </mxCell>
        <mxCell id="YiUYvIcf1jTSnU425tms-39" value="Meus Pedidos Online" style="whiteSpace=wrap;html=1;fontStyle=0;strokeColor=#6c8ebf;fillColor=#dae8fc;" parent="1" vertex="1">
          <mxGeometry x="542" y="465" width="120" height="60" as="geometry" />
        </mxCell>
        <mxCell id="YiUYvIcf1jTSnU425tms-40" value="" style="edgeStyle=orthogonalEdgeStyle;rounded=0;orthogonalLoop=1;jettySize=auto;html=1;fontSize=13;fontColor=#000000;" parent="1" source="YiUYvIcf1jTSnU425tms-43" target="YiUYvIcf1jTSnU425tms-44" edge="1">
          <mxGeometry relative="1" as="geometry" />
        </mxCell>
        <mxCell id="YiUYvIcf1jTSnU425tms-41" value="" style="edgeStyle=orthogonalEdgeStyle;rounded=0;orthogonalLoop=1;jettySize=auto;html=1;fontSize=13;fontColor=#000000;" parent="1" source="YiUYvIcf1jTSnU425tms-43" target="YiUYvIcf1jTSnU425tms-45" edge="1">
          <mxGeometry relative="1" as="geometry" />
        </mxCell>
        <mxCell id="YiUYvIcf1jTSnU425tms-42" value="" style="edgeStyle=orthogonalEdgeStyle;rounded=0;orthogonalLoop=1;jettySize=auto;html=1;fontSize=13;fontColor=#000000;" parent="1" source="YiUYvIcf1jTSnU425tms-43" target="YiUYvIcf1jTSnU425tms-46" edge="1">
          <mxGeometry relative="1" as="geometry" />
        </mxCell>
        <mxCell id="YiUYvIcf1jTSnU425tms-43" value="Visualizar Pedido" style="whiteSpace=wrap;html=1;fontStyle=0;strokeColor=#6c8ebf;fillColor=#dae8fc;" parent="1" vertex="1">
          <mxGeometry x="542" y="605" width="120" height="60" as="geometry" />
        </mxCell>
        <mxCell id="YiUYvIcf1jTSnU425tms-44" value="Imprimir Segunda Via" style="whiteSpace=wrap;html=1;fontStyle=0;strokeColor=#6c8ebf;fillColor=#dae8fc;" parent="1" vertex="1">
          <mxGeometry x="342" y="605" width="120" height="60" as="geometry" />
        </mxCell>
        <mxCell id="YiUYvIcf1jTSnU425tms-45" value="Status do Pedido" style="whiteSpace=wrap;html=1;fontStyle=0;strokeColor=#6c8ebf;fillColor=#dae8fc;" parent="1" vertex="1">
          <mxGeometry x="542" y="745" width="120" height="60" as="geometry" />
        </mxCell>
        <mxCell id="YiUYvIcf1jTSnU425tms-46" value="Cancelamento&lt;br&gt;(verificar com Jurídico)" style="whiteSpace=wrap;html=1;fontStyle=0;strokeColor=#6c8ebf;fillColor=#dae8fc;" parent="1" vertex="1">
          <mxGeometry x="738" y="605" width="120" height="60" as="geometry" />
        </mxCell>
        <mxCell id="YiUYvIcf1jTSnU425tms-47" value="&lt;div&gt;MVP: DEFINIÇÃO: Trazer histórico de pedidos feitos em outras plataformas.&lt;/div&gt;&lt;div&gt;- Realizar sicronização ce pedidos com SAP: Baixa de pagamento e bloqueio.&lt;/div&gt;" style="whiteSpace=wrap;html=1;fontStyle=0;strokeColor=#C73500;fillColor=#fa6800;fontColor=#ffffff;" parent="1" vertex="1">
          <mxGeometry x="121" y="449.5" width="327" height="90.5" as="geometry" />
        </mxCell>
        <mxCell id="ZyZWIug1i_7abqR-xJH1-10" value="" style="edgeStyle=orthogonalEdgeStyle;rounded=0;orthogonalLoop=1;jettySize=auto;html=1;fontSize=14;fontFamily=Helvetica;" parent="1" source="53-n7_swVfXgAftsPMF5-1" target="ZyZWIug1i_7abqR-xJH1-9" edge="1">
          <mxGeometry relative="1" as="geometry" />
        </mxCell>
        <mxCell id="ZyZWIug1i_7abqR-xJH1-57" style="edgeStyle=orthogonalEdgeStyle;rounded=0;orthogonalLoop=1;jettySize=auto;html=1;entryX=0;entryY=0.75;entryDx=0;entryDy=0;fontSize=14;fontFamily=Helvetica;" parent="1" source="53-n7_swVfXgAftsPMF5-1" target="SC3JEf4WINsSZaT9sH8f-33" edge="1">
          <mxGeometry relative="1" as="geometry" />
        </mxCell>
        <mxCell id="ZyZWIug1i_7abqR-xJH1-67" style="edgeStyle=orthogonalEdgeStyle;rounded=0;orthogonalLoop=1;jettySize=auto;html=1;fontSize=14;fontFamily=Helvetica;" parent="1" source="53-n7_swVfXgAftsPMF5-1" target="0uTU3GbLn5igYx63vfDj-3" edge="1">
          <mxGeometry relative="1" as="geometry" />
        </mxCell>
        <mxCell id="53-n7_swVfXgAftsPMF5-1" value="Cadastra&amp;nbsp; Novo Cliente no SAP" style="whiteSpace=wrap;html=1;fontStyle=1;strokeColor=#432D57;fillColor=#76608a;fontColor=#ffffff;align=center;spacingLeft=5;fontSize=14;fontFamily=Helvetica;" parent="1" vertex="1">
          <mxGeometry x="-3055.25" y="812.31" width="192.5" height="58.5" as="geometry" />
        </mxCell>
        <mxCell id="53-n7_swVfXgAftsPMF5-3" value="" style="edgeStyle=orthogonalEdgeStyle;rounded=0;orthogonalLoop=1;jettySize=auto;html=1;fontSize=14;exitX=1;exitY=0.5;exitDx=0;exitDy=0;fontFamily=Helvetica;" parent="1" source="SC3JEf4WINsSZaT9sH8f-58" target="53-n7_swVfXgAftsPMF5-4" edge="1">
          <mxGeometry relative="1" as="geometry">
            <mxPoint x="-2352.2799999999997" y="1617.69" as="sourcePoint" />
          </mxGeometry>
        </mxCell>
        <mxCell id="sLcBwwiViFwoJUJywKog-17" value="" style="edgeStyle=orthogonalEdgeStyle;rounded=0;orthogonalLoop=1;jettySize=auto;html=1;fontSize=14;" parent="1" source="53-n7_swVfXgAftsPMF5-4" target="sLcBwwiViFwoJUJywKog-16" edge="1">
          <mxGeometry relative="1" as="geometry" />
        </mxCell>
        <mxCell id="53-n7_swVfXgAftsPMF5-4" value="Ingressar Pedido no SAP e mostrar/salvar o PO no portal para o cliente" style="whiteSpace=wrap;html=1;fontSize=14;fontColor=#ffffff;fontStyle=1;strokeColor=#432D57;fillColor=#76608a;fontFamily=Helvetica;" parent="1" vertex="1">
          <mxGeometry x="-2193" y="1598.69" width="345" height="60" as="geometry" />
        </mxCell>
        <mxCell id="sLcBwwiViFwoJUJywKog-2" value="" style="edgeStyle=orthogonalEdgeStyle;rounded=0;orthogonalLoop=1;jettySize=auto;html=1;" parent="1" source="0uTU3GbLn5igYx63vfDj-3" target="sLcBwwiViFwoJUJywKog-1" edge="1">
          <mxGeometry relative="1" as="geometry" />
        </mxCell>
        <mxCell id="0uTU3GbLn5igYx63vfDj-3" value="MVP: Base Local: CNPJ\CPF\IE\Senha&lt;br style=&quot;font-size: 14px&quot;&gt;Outras infos serão carregadas no SAP.&lt;br&gt;&lt;br&gt;IE: Obrigatória&lt;br&gt;Identifica o CNPJ Raiz para consulta de todos os CNPJs cadastrados no SAP.&lt;br&gt;* Informar que CNPJ fora do estado do &quot;MA&quot; não poderá receber entrega.&lt;br&gt;* Permitir criação de nova conta\endereço.&lt;br&gt;&lt;br&gt;Não será permitido alterar o endereço do código de cobrança cadastrado." style="whiteSpace=wrap;html=1;fontStyle=0;strokeColor=#C73500;fillColor=#fa6800;fontColor=#ffffff;align=left;spacingLeft=5;fontSize=14;fontFamily=Helvetica;" parent="1" vertex="1">
          <mxGeometry x="-3311" y="919" width="506" height="200.81" as="geometry" />
        </mxCell>
        <mxCell id="ZyZWIug1i_7abqR-xJH1-60" style="edgeStyle=orthogonalEdgeStyle;rounded=0;orthogonalLoop=1;jettySize=auto;html=1;fontSize=14;fontFamily=Helvetica;" parent="1" source="0uTU3GbLn5igYx63vfDj-7" target="Llw6ylmcB_U-CpbHDsIA-73" edge="1">
          <mxGeometry relative="1" as="geometry" />
        </mxCell>
        <mxCell id="0uTU3GbLn5igYx63vfDj-7" value="SE CLIENTE BLOQUEADO, NÃO PROSSEGUIR" style="whiteSpace=wrap;html=1;fontStyle=0;strokeColor=#B20000;fillColor=#e51400;fontColor=#ffffff;align=center;spacingLeft=5;fontSize=14;fontFamily=Helvetica;" parent="1" vertex="1">
          <mxGeometry x="-2460" y="916.6899999999999" width="163" height="60" as="geometry" />
        </mxCell>
        <mxCell id="0uTU3GbLn5igYx63vfDj-18" value="BUSCA FRETE NO SAP&lt;br&gt;(Nova API)" style="whiteSpace=wrap;html=1;fontColor=#ffffff;fontStyle=1;align=center;strokeColor=#432D57;fillColor=#76608a;spacingLeft=5;fontSize=14;fontFamily=Helvetica;" parent="1" vertex="1">
          <mxGeometry x="-1640.5" y="1398.93" width="185.5" height="60" as="geometry" />
        </mxCell>
        <mxCell id="9k0cm0jAxPpG9FURB-rz-2" value="" style="edgeStyle=orthogonalEdgeStyle;rounded=0;orthogonalLoop=1;jettySize=auto;html=1;fontSize=14;" parent="1" source="qlnjHwctC9TvnMz6O5r_-1" target="9k0cm0jAxPpG9FURB-rz-1" edge="1">
          <mxGeometry relative="1" as="geometry" />
        </mxCell>
        <mxCell id="qlnjHwctC9TvnMz6O5r_-1" value="integração SAP (Gerar Boleto)" style="whiteSpace=wrap;html=1;fontSize=14;fontStyle=1;strokeColor=#432D57;fillColor=#76608a;fontColor=#ffffff;fontFamily=Helvetica;" parent="1" vertex="1">
          <mxGeometry x="-2193" y="1741.69" width="202" height="60" as="geometry" />
        </mxCell>
        <mxCell id="Llw6ylmcB_U-CpbHDsIA-1" value="" style="edgeStyle=orthogonalEdgeStyle;rounded=0;orthogonalLoop=1;jettySize=auto;html=1;fontSize=14;fontFamily=Helvetica;" parent="1" edge="1">
          <mxGeometry relative="1" as="geometry">
            <mxPoint x="-2641" y="-146.69" as="sourcePoint" />
            <mxPoint x="-2431" y="-146.69" as="targetPoint" />
          </mxGeometry>
        </mxCell>
        <mxCell id="Llw6ylmcB_U-CpbHDsIA-4" style="edgeStyle=orthogonalEdgeStyle;rounded=0;orthogonalLoop=1;jettySize=auto;html=1;entryX=0.5;entryY=0;entryDx=0;entryDy=0;fontSize=14;fontFamily=Helvetica;" parent="1" edge="1">
          <mxGeometry relative="1" as="geometry">
            <mxPoint x="-2381" y="-116.69" as="sourcePoint" />
            <mxPoint x="-2381" y="-66.69" as="targetPoint" />
          </mxGeometry>
        </mxCell>
        <mxCell id="Llw6ylmcB_U-CpbHDsIA-6" value="N" style="edgeStyle=orthogonalEdgeStyle;rounded=0;orthogonalLoop=1;jettySize=auto;html=1;fontSize=14;fontFamily=Helvetica;" parent="1" edge="1">
          <mxGeometry relative="1" as="geometry">
            <mxPoint x="-2316" y="-21.69" as="sourcePoint" />
            <mxPoint x="-2231" y="-21.69" as="targetPoint" />
          </mxGeometry>
        </mxCell>
        <mxCell id="Llw6ylmcB_U-CpbHDsIA-12" value="" style="edgeStyle=orthogonalEdgeStyle;rounded=0;orthogonalLoop=1;jettySize=auto;html=1;fontSize=14;fontColor=#000000;exitX=0;exitY=0.5;exitDx=0;exitDy=0;entryX=1;entryY=0.5;entryDx=0;entryDy=0;fontFamily=Helvetica;" parent="1" source="Llw6ylmcB_U-CpbHDsIA-15" target="Llw6ylmcB_U-CpbHDsIA-20" edge="1">
          <mxGeometry relative="1" as="geometry" />
        </mxCell>
        <mxCell id="Llw6ylmcB_U-CpbHDsIA-15" value="Checkout&lt;br style=&quot;font-size: 14px;&quot;&gt;(Comprar Produto)" style="whiteSpace=wrap;html=1;fontStyle=1;strokeColor=#6c8ebf;fillColor=#dae8fc;fontSize=14;fontFamily=Helvetica;" parent="1" vertex="1">
          <mxGeometry x="-2475" y="628.31" width="187" height="60" as="geometry" />
        </mxCell>
        <mxCell id="ZyZWIug1i_7abqR-xJH1-2" style="edgeStyle=orthogonalEdgeStyle;rounded=0;orthogonalLoop=1;jettySize=auto;html=1;entryX=1;entryY=0.5;entryDx=0;entryDy=0;fontSize=14;fontFamily=Helvetica;" parent="1" source="Llw6ylmcB_U-CpbHDsIA-20" target="ZyZWIug1i_7abqR-xJH1-1" edge="1">
          <mxGeometry relative="1" as="geometry" />
        </mxCell>
        <mxCell id="Llw6ylmcB_U-CpbHDsIA-20" value="Autentica/Cadastra Cliente&lt;br style=&quot;font-size: 14px;&quot;&gt;&lt;span style=&quot;font-size: 14px;&quot;&gt;(API Economy)&lt;/span&gt;" style="whiteSpace=wrap;html=1;fontStyle=1;strokeColor=#6c8ebf;fillColor=#dae8fc;fontSize=14;fontFamily=Helvetica;" parent="1" vertex="1">
          <mxGeometry x="-2799.5" y="628.31" width="197" height="60" as="geometry" />
        </mxCell>
        <mxCell id="Llw6ylmcB_U-CpbHDsIA-24" value="" style="edgeStyle=orthogonalEdgeStyle;rounded=0;orthogonalLoop=1;jettySize=auto;html=1;fontSize=14;fontColor=#000000;fontFamily=Helvetica;" parent="1" edge="1">
          <mxGeometry relative="1" as="geometry">
            <mxPoint x="-3540" y="968.18" as="sourcePoint" />
            <mxPoint x="-3620" y="968.18" as="targetPoint" />
          </mxGeometry>
        </mxCell>
        <mxCell id="Llw6ylmcB_U-CpbHDsIA-27" value="" style="edgeStyle=orthogonalEdgeStyle;rounded=0;orthogonalLoop=1;jettySize=auto;html=1;fontSize=14;fontColor=#000000;fontFamily=Helvetica;entryX=0.5;entryY=0;entryDx=0;entryDy=0;" parent="1" target="Llw6ylmcB_U-CpbHDsIA-31" edge="1">
          <mxGeometry relative="1" as="geometry">
            <mxPoint x="-3480" y="1138.1799999999998" as="sourcePoint" />
            <Array as="points">
              <mxPoint x="-3480" y="1179.6799999999998" />
              <mxPoint x="-3768" y="1179.6799999999998" />
            </Array>
          </mxGeometry>
        </mxCell>
        <mxCell id="Llw6ylmcB_U-CpbHDsIA-31" value="Status do Pedido" style="whiteSpace=wrap;html=1;fontStyle=0;strokeColor=#6c8ebf;fillColor=#dae8fc;fontSize=14;fontFamily=Helvetica;" parent="1" vertex="1">
          <mxGeometry x="-3828" y="1228.6799999999998" width="120" height="60" as="geometry" />
        </mxCell>
        <mxCell id="Llw6ylmcB_U-CpbHDsIA-37" value="* Forecast para quantidade está disponível em BI.&lt;br style=&quot;font-size: 14px;&quot;&gt;* Existe uma frente de cadastro no  SF.&lt;br style=&quot;font-size: 14px;&quot;&gt;&lt;br style=&quot;font-size: 14px;&quot;&gt;* TBD: DEFINIR COMO ALIMENTAR O FORECAST NO E-COMMERCE (QUANTIDADE MÁXIMA PERMITIDA)" style="whiteSpace=wrap;html=1;fontStyle=1;strokeColor=#B20000;fillColor=#e51400;fontColor=#ffffff;align=left;spacingLeft=5;fontSize=14;fontFamily=Helvetica;" parent="1" vertex="1">
          <mxGeometry x="-2123" y="366.31" width="539" height="99" as="geometry" />
        </mxCell>
        <mxCell id="Llw6ylmcB_U-CpbHDsIA-51" style="edgeStyle=orthogonalEdgeStyle;rounded=0;orthogonalLoop=1;jettySize=auto;html=1;entryX=0;entryY=0.5;entryDx=0;entryDy=0;fontSize=14;fontColor=#000000;fontFamily=Helvetica;" parent="1" edge="1">
          <mxGeometry relative="1" as="geometry">
            <mxPoint x="-2278.5" y="1428.9349999999995" as="sourcePoint" />
            <mxPoint x="-2194" y="1428.9349999999995" as="targetPoint" />
          </mxGeometry>
        </mxCell>
        <mxCell id="Llw6ylmcB_U-CpbHDsIA-58" value="" style="edgeStyle=orthogonalEdgeStyle;rounded=0;orthogonalLoop=1;jettySize=auto;html=1;fontSize=14;fontFamily=Helvetica;" parent="1" edge="1">
          <mxGeometry relative="1" as="geometry">
            <mxPoint x="-2268" y="1771.69" as="sourcePoint" />
            <mxPoint x="-2193" y="1771.69" as="targetPoint" />
          </mxGeometry>
        </mxCell>
        <mxCell id="Llw6ylmcB_U-CpbHDsIA-61" value="" style="edgeStyle=orthogonalEdgeStyle;rounded=0;orthogonalLoop=1;jettySize=auto;html=1;fontSize=14;exitX=1;exitY=0.5;exitDx=0;exitDy=0;fontFamily=Helvetica;" parent="1" edge="1">
          <mxGeometry relative="1" as="geometry">
            <mxPoint x="-2318.5" y="1628.69" as="sourcePoint" />
            <mxPoint x="-2193" y="1628.69" as="targetPoint" />
          </mxGeometry>
        </mxCell>
        <mxCell id="Llw6ylmcB_U-CpbHDsIA-76" style="edgeStyle=orthogonalEdgeStyle;rounded=0;orthogonalLoop=1;jettySize=auto;html=1;fontSize=14;entryX=1;entryY=0.5;entryDx=0;entryDy=0;fontFamily=Helvetica;" parent="1" target="Llw6ylmcB_U-CpbHDsIA-74" edge="1">
          <mxGeometry relative="1" as="geometry">
            <mxPoint x="-2460" y="946.6433333333334" as="sourcePoint" />
          </mxGeometry>
        </mxCell>
        <mxCell id="Llw6ylmcB_U-CpbHDsIA-73" value="Mensagem de Erro" style="whiteSpace=wrap;html=1;fontStyle=0;strokeColor=#B20000;fillColor=#e51400;fontColor=#ffffff;align=center;spacingLeft=5;fontSize=14;fontFamily=Helvetica;" parent="1" vertex="1">
          <mxGeometry x="-2167" y="917.18" width="132.5" height="59.51" as="geometry" />
        </mxCell>
        <mxCell id="sLcBwwiViFwoJUJywKog-15" value="" style="edgeStyle=orthogonalEdgeStyle;rounded=0;orthogonalLoop=1;jettySize=auto;html=1;fontSize=14;" parent="1" source="Llw6ylmcB_U-CpbHDsIA-74" target="sLcBwwiViFwoJUJywKog-14" edge="1">
          <mxGeometry relative="1" as="geometry" />
        </mxCell>
        <mxCell id="Llw6ylmcB_U-CpbHDsIA-74" value="Log de Erro&lt;br style=&quot;font-size: 14px;&quot;&gt;Relatório" style="whiteSpace=wrap;html=1;fontStyle=0;strokeColor=#B20000;fillColor=#e51400;fontColor=#ffffff;align=center;spacingLeft=5;fontSize=14;fontFamily=Helvetica;" parent="1" vertex="1">
          <mxGeometry x="-2736.5" y="919" width="134" height="55.38" as="geometry" />
        </mxCell>
        <mxCell id="Llw6ylmcB_U-CpbHDsIA-83" value="" style="edgeStyle=orthogonalEdgeStyle;rounded=0;orthogonalLoop=1;jettySize=auto;html=1;fontSize=14;fontColor=#000000;fontFamily=Helvetica;" parent="1" edge="1">
          <mxGeometry relative="1" as="geometry">
            <mxPoint x="-3540" y="968.18" as="sourcePoint" />
            <mxPoint x="-3620" y="968.18" as="targetPoint" />
          </mxGeometry>
        </mxCell>
        <mxCell id="sLcBwwiViFwoJUJywKog-7" style="edgeStyle=orthogonalEdgeStyle;rounded=0;orthogonalLoop=1;jettySize=auto;html=1;entryX=0.5;entryY=0;entryDx=0;entryDy=0;" parent="1" source="Llw6ylmcB_U-CpbHDsIA-94" target="sLcBwwiViFwoJUJywKog-6" edge="1">
          <mxGeometry relative="1" as="geometry" />
        </mxCell>
        <mxCell id="Llw6ylmcB_U-CpbHDsIA-94" value="Histórico de Pedidos" style="whiteSpace=wrap;html=1;fontStyle=0;strokeColor=#6c8ebf;fillColor=#dae8fc;fontSize=14;fontFamily=Helvetica;" parent="1" vertex="1">
          <mxGeometry x="-3540" y="628.31" width="120" height="60" as="geometry" />
        </mxCell>
        <mxCell id="Llw6ylmcB_U-CpbHDsIA-96" value="" style="edgeStyle=orthogonalEdgeStyle;rounded=0;orthogonalLoop=1;jettySize=auto;html=1;fontSize=14;fontColor=#000000;fontFamily=Helvetica;" parent="1" edge="1">
          <mxGeometry relative="1" as="geometry">
            <mxPoint x="-3540" y="968.18" as="sourcePoint" />
            <mxPoint x="-3620" y="968.18" as="targetPoint" />
          </mxGeometry>
        </mxCell>
        <mxCell id="Llw6ylmcB_U-CpbHDsIA-104" value="Cancelamento&lt;br style=&quot;font-size: 14px;&quot;&gt;(Abertura SNOW e Atualiza Status automático)&lt;br style=&quot;font-size: 14px;&quot;&gt;- VALIDAR COM COE" style="whiteSpace=wrap;html=1;fontStyle=1;strokeColor=#B20000;fillColor=#e51400;fontColor=#ffffff;fontSize=14;fontFamily=Helvetica;" parent="1" vertex="1">
          <mxGeometry x="-3718" y="1317.31" width="330" height="60" as="geometry" />
        </mxCell>
        <mxCell id="ZyZWIug1i_7abqR-xJH1-6" value="N" style="edgeStyle=orthogonalEdgeStyle;rounded=0;orthogonalLoop=1;jettySize=auto;html=1;fontSize=14;fontFamily=Helvetica;" parent="1" source="ZyZWIug1i_7abqR-xJH1-1" target="ZyZWIug1i_7abqR-xJH1-5" edge="1">
          <mxGeometry relative="1" as="geometry" />
        </mxCell>
        <mxCell id="ZyZWIug1i_7abqR-xJH1-7" value="S" style="edgeStyle=orthogonalEdgeStyle;rounded=0;orthogonalLoop=1;jettySize=auto;html=1;fontSize=14;fontFamily=Helvetica;" parent="1" source="ZyZWIug1i_7abqR-xJH1-1" target="53-n7_swVfXgAftsPMF5-1" edge="1">
          <mxGeometry relative="1" as="geometry">
            <mxPoint x="-2959" y="756.81" as="targetPoint" />
          </mxGeometry>
        </mxCell>
        <mxCell id="ZyZWIug1i_7abqR-xJH1-1" value="Novo?" style="rhombus;whiteSpace=wrap;html=1;fillColor=#dae8fc;fontSize=14;align=center;strokeColor=#6c8ebf;fontStyle=1;fontFamily=Helvetica;" parent="1" vertex="1">
          <mxGeometry x="-3032" y="611.81" width="146" height="93" as="geometry" />
        </mxCell>
        <mxCell id="ZyZWIug1i_7abqR-xJH1-8" style="edgeStyle=orthogonalEdgeStyle;rounded=0;orthogonalLoop=1;jettySize=auto;html=1;entryX=1;entryY=0.5;entryDx=0;entryDy=0;fontSize=14;fontFamily=Helvetica;" parent="1" source="ZyZWIug1i_7abqR-xJH1-5" target="Llw6ylmcB_U-CpbHDsIA-94" edge="1">
          <mxGeometry relative="1" as="geometry" />
        </mxCell>
        <mxCell id="ZyZWIug1i_7abqR-xJH1-62" style="edgeStyle=orthogonalEdgeStyle;rounded=0;orthogonalLoop=1;jettySize=auto;html=1;entryX=0;entryY=0.25;entryDx=0;entryDy=0;fontSize=14;fontFamily=Helvetica;" parent="1" source="ZyZWIug1i_7abqR-xJH1-5" target="SC3JEf4WINsSZaT9sH8f-33" edge="1">
          <mxGeometry relative="1" as="geometry">
            <Array as="points">
              <mxPoint x="-3185" y="779.81" />
            </Array>
          </mxGeometry>
        </mxCell>
        <mxCell id="ZyZWIug1i_7abqR-xJH1-64" style="edgeStyle=orthogonalEdgeStyle;rounded=0;orthogonalLoop=1;jettySize=auto;html=1;exitX=0.5;exitY=0;exitDx=0;exitDy=0;fontSize=14;entryX=0.5;entryY=1;entryDx=0;entryDy=0;fontFamily=Helvetica;" parent="1" source="ZyZWIug1i_7abqR-xJH1-5" target="SC3JEf4WINsSZaT9sH8f-52" edge="1">
          <mxGeometry relative="1" as="geometry">
            <mxPoint x="-3184.285714285714" y="525.81" as="targetPoint" />
          </mxGeometry>
        </mxCell>
        <mxCell id="ZyZWIug1i_7abqR-xJH1-5" value="Autentica" style="whiteSpace=wrap;html=1;fontSize=14;fontStyle=1;strokeColor=#6c8ebf;fillColor=#dae8fc;fontFamily=Helvetica;" parent="1" vertex="1">
          <mxGeometry x="-3245" y="628.31" width="120" height="60" as="geometry" />
        </mxCell>
        <mxCell id="ZyZWIug1i_7abqR-xJH1-9" value="Consulta Midas" style="whiteSpace=wrap;html=1;fontSize=14;fontColor=#ffffff;fontStyle=0;strokeColor=#432D57;fillColor=#76608a;spacingLeft=5;fontFamily=Helvetica;" parent="1" vertex="1">
          <mxGeometry x="-3278" y="811.56" width="120" height="60" as="geometry" />
        </mxCell>
        <mxCell id="ZyZWIug1i_7abqR-xJH1-65" value="Cadastrar Nova Filial no SAP" style="whiteSpace=wrap;html=1;fontSize=14;fontStyle=1;strokeColor=#432D57;fillColor=#76608a;fontColor=#ffffff;fontFamily=Helvetica;" parent="1" vertex="1">
          <mxGeometry x="-3245" y="354.06" width="120" height="60" as="geometry" />
        </mxCell>
        <mxCell id="ZyZWIug1i_7abqR-xJH1-74" value="" style="edgeStyle=orthogonalEdgeStyle;rounded=0;orthogonalLoop=1;jettySize=auto;html=1;fontSize=14;fontFamily=Helvetica;" parent="1" source="ZyZWIug1i_7abqR-xJH1-69" target="ZyZWIug1i_7abqR-xJH1-73" edge="1">
          <mxGeometry relative="1" as="geometry" />
        </mxCell>
        <mxCell id="ZyZWIug1i_7abqR-xJH1-69" value="Selecionar Produto" style="whiteSpace=wrap;html=1;fontStyle=1;strokeColor=#6c8ebf;fillColor=#dae8fc;fontSize=14;fontFamily=Helvetica;" parent="1" vertex="1">
          <mxGeometry x="-2519" y="246.31" width="275" height="60" as="geometry" />
        </mxCell>
        <mxCell id="ZyZWIug1i_7abqR-xJH1-75" style="edgeStyle=orthogonalEdgeStyle;rounded=0;orthogonalLoop=1;jettySize=auto;html=1;exitX=1;exitY=0.5;exitDx=0;exitDy=0;entryX=0;entryY=0.5;entryDx=0;entryDy=0;fontSize=14;fontFamily=Helvetica;" parent="1" source="ZyZWIug1i_7abqR-xJH1-73" target="Llw6ylmcB_U-CpbHDsIA-37" edge="1">
          <mxGeometry relative="1" as="geometry" />
        </mxCell>
        <mxCell id="ZyZWIug1i_7abqR-xJH1-76" style="edgeStyle=orthogonalEdgeStyle;rounded=0;orthogonalLoop=1;jettySize=auto;html=1;fontSize=14;fontFamily=Helvetica;" parent="1" source="ZyZWIug1i_7abqR-xJH1-73" target="Llw6ylmcB_U-CpbHDsIA-15" edge="1">
          <mxGeometry relative="1" as="geometry" />
        </mxCell>
        <mxCell id="ZyZWIug1i_7abqR-xJH1-73" value="Selecionar Quantidades de &lt;br style=&quot;font-size: 14px;&quot;&gt;Caminhões 38T e 46T" style="whiteSpace=wrap;html=1;fontSize=14;fontStyle=1;strokeColor=#6c8ebf;fillColor=#dae8fc;fontFamily=Helvetica;" parent="1" vertex="1">
          <mxGeometry x="-2541" y="386.31" width="319" height="60" as="geometry" />
        </mxCell>
        <mxCell id="k7qJe9tMdCRVFwdtE0tW-4" value="Tornar configurável MOSTRAR Preço sem Login" style="rounded=0;whiteSpace=wrap;html=1;fillColor=#fa6800;strokeColor=#C73500;fontColor=#ffffff;fontStyle=1;fontSize=13;" parent="1" vertex="1">
          <mxGeometry x="-2123" y="102.81" width="363" height="60" as="geometry" />
        </mxCell>
        <mxCell id="w89-vKPUMR_P6JWfKxBr-1" value="Busca Pedidos SAP (Online)" style="whiteSpace=wrap;html=1;fontSize=14;fontStyle=1;strokeColor=#432D57;fillColor=#76608a;fontColor=#ffffff;" parent="1" vertex="1">
          <mxGeometry x="-3828" y="786.31" width="186" height="60" as="geometry" />
        </mxCell>
        <mxCell id="9k0cm0jAxPpG9FURB-rz-4" value="" style="edgeStyle=orthogonalEdgeStyle;rounded=0;orthogonalLoop=1;jettySize=auto;html=1;fontSize=14;" parent="1" source="sLcBwwiViFwoJUJywKog-1" target="9k0cm0jAxPpG9FURB-rz-3" edge="1">
          <mxGeometry relative="1" as="geometry" />
        </mxCell>
        <mxCell id="sLcBwwiViFwoJUJywKog-1" value="1. Ao registrar novo cliente, buscar o CNPJ raiz no SAP e listar CNPJs cadastrados.&lt;br&gt;2. Se CNPJ não aparecer, cadastrar novo CNPJ.&lt;br&gt;3. Se CNPJ já cadastrado, associar o CNPJ Raiz na conta do OnlineSales e cadastrar nova conta no SAP para o novo CNPJ.&lt;br&gt;" style="whiteSpace=wrap;html=1;fontSize=14;fontColor=#ffffff;fontStyle=0;align=left;strokeColor=#C73500;fillColor=#fa6800;spacingLeft=5;" parent="1" vertex="1">
          <mxGeometry x="-3300" y="1270.22" width="484" height="113.59" as="geometry" />
        </mxCell>
        <mxCell id="sLcBwwiViFwoJUJywKog-8" style="edgeStyle=orthogonalEdgeStyle;rounded=0;orthogonalLoop=1;jettySize=auto;html=1;entryX=0.5;entryY=0;entryDx=0;entryDy=0;" parent="1" source="sLcBwwiViFwoJUJywKog-6" target="SC3JEf4WINsSZaT9sH8f-23" edge="1">
          <mxGeometry relative="1" as="geometry" />
        </mxCell>
        <mxCell id="sLcBwwiViFwoJUJywKog-6" value="Seleciona CNPJ" style="rounded=0;whiteSpace=wrap;html=1;fillColor=#dae8fc;strokeColor=#6c8ebf;fontSize=14;" parent="1" vertex="1">
          <mxGeometry x="-3540" y="778.81" width="120" height="60" as="geometry" />
        </mxCell>
        <mxCell id="sLcBwwiViFwoJUJywKog-10" value="Order Tracking" style="whiteSpace=wrap;html=1;fontSize=14;fontStyle=1;strokeColor=#432D57;fillColor=#76608a;fontColor=#ffffff;" parent="1" vertex="1">
          <mxGeometry x="-3355" y="1159.6799999999998" width="120" height="60" as="geometry" />
        </mxCell>
        <mxCell id="sLcBwwiViFwoJUJywKog-13" value="Alteryx envia preço para o Online Sales" style="rounded=0;whiteSpace=wrap;html=1;fontSize=14;fillColor=#76608a;strokeColor=#432D57;fontColor=#ffffff;" parent="1" vertex="1">
          <mxGeometry x="-1562" y="749.81" width="220" height="60" as="geometry" />
        </mxCell>
        <mxCell id="sLcBwwiViFwoJUJywKog-14" value="Registra no Controle de Leads" style="whiteSpace=wrap;html=1;fontSize=14;fontColor=#ffffff;fontStyle=0;strokeColor=#B20000;fillColor=#e51400;spacingLeft=5;" parent="1" vertex="1">
          <mxGeometry x="-2730.75" y="1042.81" width="122.5" height="56.74" as="geometry" />
        </mxCell>
        <mxCell id="sLcBwwiViFwoJUJywKog-16" value="&lt;span&gt;Roadmap:&lt;br&gt;Novo campo na Order para PO Online e revisar relatórios &#39;Z&#39;)&lt;/span&gt;" style="whiteSpace=wrap;html=1;fontSize=14;fontColor=#ffffff;fontStyle=1;strokeColor=#432D57;fillColor=#76608a;" parent="1" vertex="1">
          <mxGeometry x="-1775" y="1598.69" width="301" height="60" as="geometry" />
        </mxCell>
        <mxCell id="9k0cm0jAxPpG9FURB-rz-1" value="Verificar&amp;nbsp; se o PDF do Pedido não será encaminhado automaticamente para o respresentante" style="whiteSpace=wrap;html=1;fontSize=14;fontColor=#ffffff;fontStyle=1;strokeColor=#B20000;fillColor=#e51400;" parent="1" vertex="1">
          <mxGeometry x="-1903" y="1741.69" width="396" height="60" as="geometry" />
        </mxCell>
        <mxCell id="9k0cm0jAxPpG9FURB-rz-3" value="&lt;span&gt;Para clientes já existentes, validar o cadastro do e-mail que está no SAP e atualizar no SAP se necessário.&lt;br&gt;&lt;br&gt;Validar com Comercial se isso não impacta outros pedidos.&lt;br&gt;&lt;/span&gt;" style="whiteSpace=wrap;html=1;fontSize=14;fontColor=#ffffff;fontStyle=0;align=left;strokeColor=#B20000;fillColor=#e51400;spacingLeft=5;" parent="1" vertex="1">
          <mxGeometry x="-3300" y="1458.94" width="484" height="78.87" as="geometry" />
        </mxCell>
        <mxCell id="PRT1kxHecN6e5o8HNAcf-1" value="&lt;div style=&quot;font-size: 14px&quot;&gt;REGRA DE NEGÒCIO&lt;/div&gt;" style="whiteSpace=wrap;html=1;fontStyle=0;strokeColor=#C73500;fillColor=#fa6800;fontColor=#ffffff;fontSize=14;fontFamily=Helvetica;" parent="1" vertex="1">
          <mxGeometry x="-4092" y="396" width="275" height="35.19" as="geometry" />
        </mxCell>
        <mxCell id="PRT1kxHecN6e5o8HNAcf-2" value="Interface Outros Sistemas" style="whiteSpace=wrap;html=1;fontSize=14;fontStyle=1;strokeColor=#432D57;fillColor=#76608a;fontColor=#ffffff;fontFamily=Helvetica;" parent="1" vertex="1">
          <mxGeometry x="-4092" y="450.19" width="275" height="36" as="geometry" />
        </mxCell>
        <mxCell id="PRT1kxHecN6e5o8HNAcf-3" value="&lt;p style=&quot;margin-top: 0pt ; margin-bottom: 0pt ; margin-left: 0in ; text-indent: 0in ; font-size: 14px&quot;&gt;&lt;b&gt;PENDENTE&lt;/b&gt;&lt;/p&gt;" style="whiteSpace=wrap;html=1;fillColor=#e51400;strokeColor=#B20000;fontStyle=0;fontSize=14;fontFamily=Helvetica;fontColor=#ffffff;" parent="1" vertex="1">
          <mxGeometry x="-4092" y="506" width="275" height="33" as="geometry" />
        </mxCell>
        <mxCell id="PRT1kxHecN6e5o8HNAcf-4" value="Processo do Portal" style="whiteSpace=wrap;html=1;fontSize=14;fontStyle=1;strokeColor=#6c8ebf;fillColor=#dae8fc;fontFamily=Helvetica;" parent="1" vertex="1">
          <mxGeometry x="-4092" y="336" width="275" height="38" as="geometry" />
        </mxCell>
      </root>
    </mxGraphModel>
  </diagram>
  <diagram id="F6C4VkJwRCMh--I10GQn" name="Entrega">
    <mxGraphModel dx="3061" dy="617" grid="1" gridSize="10" guides="1" tooltips="1" connect="1" arrows="1" fold="1" page="1" pageScale="1" pageWidth="850" pageHeight="1100" math="0" shadow="0">
      <root>
        <mxCell id="eeA8OCcnUGyq8BiIao9--0" />
        <mxCell id="eeA8OCcnUGyq8BiIao9--1" parent="eeA8OCcnUGyq8BiIao9--0" />
        <mxCell id="eeA8OCcnUGyq8BiIao9--5" value="" style="edgeStyle=orthogonalEdgeStyle;rounded=0;orthogonalLoop=1;jettySize=auto;html=1;fontSize=12;fontColor=#000000;" parent="eeA8OCcnUGyq8BiIao9--1" source="eeA8OCcnUGyq8BiIao9--3" target="eeA8OCcnUGyq8BiIao9--4" edge="1">
          <mxGeometry relative="1" as="geometry" />
        </mxCell>
        <mxCell id="eeA8OCcnUGyq8BiIao9--3" value="Liberar Pedido" style="rounded=0;whiteSpace=wrap;html=1;strokeColor=#6c8ebf;fontSize=12;align=center;fillColor=#dae8fc;" parent="eeA8OCcnUGyq8BiIao9--1" vertex="1">
          <mxGeometry x="110" y="200" width="120" height="60" as="geometry" />
        </mxCell>
        <mxCell id="K8BTjExtuBlMBbfLbNbR-6" style="edgeStyle=orthogonalEdgeStyle;rounded=0;orthogonalLoop=1;jettySize=auto;html=1;entryX=1;entryY=0.5;entryDx=0;entryDy=0;fontSize=12;" parent="eeA8OCcnUGyq8BiIao9--1" source="eeA8OCcnUGyq8BiIao9--4" target="XlkLnrGHWDeot9S0G0ls-2" edge="1">
          <mxGeometry relative="1" as="geometry" />
        </mxCell>
        <mxCell id="eeA8OCcnUGyq8BiIao9--4" value="Pedidos Liberados para Transporte" style="whiteSpace=wrap;html=1;rounded=0;fontSize=12;strokeColor=#6c8ebf;fillColor=#dae8fc;" parent="eeA8OCcnUGyq8BiIao9--1" vertex="1">
          <mxGeometry x="110" y="320" width="120" height="60" as="geometry" />
        </mxCell>
        <mxCell id="eeA8OCcnUGyq8BiIao9--8" style="edgeStyle=orthogonalEdgeStyle;rounded=0;orthogonalLoop=1;jettySize=auto;html=1;entryX=1;entryY=0.5;entryDx=0;entryDy=0;fontSize=12;fontColor=#000000;" parent="eeA8OCcnUGyq8BiIao9--1" source="eeA8OCcnUGyq8BiIao9--6" target="eeA8OCcnUGyq8BiIao9--3" edge="1">
          <mxGeometry relative="1" as="geometry" />
        </mxCell>
        <mxCell id="eeA8OCcnUGyq8BiIao9--6" value="Proceso de Conciliação bancária automática" style="rounded=0;whiteSpace=wrap;html=1;strokeColor=#C73500;fontSize=12;align=center;fillColor=#fa6800;fontColor=#ffffff;" parent="eeA8OCcnUGyq8BiIao9--1" vertex="1">
          <mxGeometry x="290" y="200" width="200" height="60" as="geometry" />
        </mxCell>
        <mxCell id="eeA8OCcnUGyq8BiIao9--15" value="" style="edgeStyle=orthogonalEdgeStyle;rounded=0;orthogonalLoop=1;jettySize=auto;html=1;fontSize=12;fontColor=#000000;" parent="eeA8OCcnUGyq8BiIao9--1" source="eeA8OCcnUGyq8BiIao9--12" target="eeA8OCcnUGyq8BiIao9--14" edge="1">
          <mxGeometry relative="1" as="geometry" />
        </mxCell>
        <mxCell id="eeA8OCcnUGyq8BiIao9--12" value="Chegado do Veículo na Planta" style="whiteSpace=wrap;html=1;rounded=0;fontSize=12;strokeColor=#6c8ebf;fillColor=#dae8fc;" parent="eeA8OCcnUGyq8BiIao9--1" vertex="1">
          <mxGeometry x="100" y="830" width="120" height="60" as="geometry" />
        </mxCell>
        <mxCell id="K8BTjExtuBlMBbfLbNbR-23" value="" style="edgeStyle=orthogonalEdgeStyle;rounded=0;orthogonalLoop=1;jettySize=auto;html=1;fontSize=12;" parent="eeA8OCcnUGyq8BiIao9--1" source="eeA8OCcnUGyq8BiIao9--14" target="K8BTjExtuBlMBbfLbNbR-22" edge="1">
          <mxGeometry relative="1" as="geometry" />
        </mxCell>
        <mxCell id="eeA8OCcnUGyq8BiIao9--14" value="Carregamento" style="whiteSpace=wrap;html=1;rounded=0;fontSize=12;strokeColor=#6c8ebf;fillColor=#dae8fc;" parent="eeA8OCcnUGyq8BiIao9--1" vertex="1">
          <mxGeometry x="100" y="940" width="120" height="60" as="geometry" />
        </mxCell>
        <mxCell id="XlkLnrGHWDeot9S0G0ls-0" style="edgeStyle=orthogonalEdgeStyle;rounded=0;orthogonalLoop=1;jettySize=auto;html=1;entryX=0.5;entryY=0;entryDx=0;entryDy=0;fontSize=12;exitX=0.5;exitY=1;exitDx=0;exitDy=0;" parent="eeA8OCcnUGyq8BiIao9--1" source="ngV0qq3SoZCXsDcDRQCc-0" target="eeA8OCcnUGyq8BiIao9--3" edge="1">
          <mxGeometry relative="1" as="geometry">
            <mxPoint x="150" y="130.0000000000001" as="sourcePoint" />
          </mxGeometry>
        </mxCell>
        <mxCell id="ngV0qq3SoZCXsDcDRQCc-0" value="Pagamento &lt;br style=&quot;font-size: 12px;&quot;&gt;Boleto" style="shape=parallelogram;perimeter=parallelogramPerimeter;whiteSpace=wrap;html=1;fixedSize=1;rounded=0;fontSize=12;strokeColor=#6c8ebf;fillColor=#dae8fc;" parent="eeA8OCcnUGyq8BiIao9--1" vertex="1">
          <mxGeometry x="110" y="90" width="120" height="60" as="geometry" />
        </mxCell>
        <mxCell id="XlkLnrGHWDeot9S0G0ls-4" value="" style="edgeStyle=orthogonalEdgeStyle;rounded=0;orthogonalLoop=1;jettySize=auto;html=1;fontSize=12;" parent="eeA8OCcnUGyq8BiIao9--1" source="XlkLnrGHWDeot9S0G0ls-2" target="XlkLnrGHWDeot9S0G0ls-3" edge="1">
          <mxGeometry relative="1" as="geometry" />
        </mxCell>
        <mxCell id="K8BTjExtuBlMBbfLbNbR-13" style="edgeStyle=orthogonalEdgeStyle;rounded=0;orthogonalLoop=1;jettySize=auto;html=1;entryX=1.005;entryY=0.197;entryDx=0;entryDy=0;entryPerimeter=0;fontSize=12;" parent="eeA8OCcnUGyq8BiIao9--1" source="XlkLnrGHWDeot9S0G0ls-2" target="K8BTjExtuBlMBbfLbNbR-10" edge="1">
          <mxGeometry relative="1" as="geometry" />
        </mxCell>
        <mxCell id="XlkLnrGHWDeot9S0G0ls-2" value="Gestão de Carteira" style="whiteSpace=wrap;html=1;rounded=1;fontSize=12;strokeColor=#36393d;fillColor=#cdeb8b;" parent="eeA8OCcnUGyq8BiIao9--1" vertex="1">
          <mxGeometry x="-90" y="320" width="120" height="60" as="geometry" />
        </mxCell>
        <mxCell id="XlkLnrGHWDeot9S0G0ls-6" value="" style="edgeStyle=orthogonalEdgeStyle;rounded=0;orthogonalLoop=1;jettySize=auto;html=1;fontSize=12;" parent="eeA8OCcnUGyq8BiIao9--1" source="XlkLnrGHWDeot9S0G0ls-3" target="XlkLnrGHWDeot9S0G0ls-5" edge="1">
          <mxGeometry relative="1" as="geometry" />
        </mxCell>
        <mxCell id="K8BTjExtuBlMBbfLbNbR-14" style="edgeStyle=orthogonalEdgeStyle;rounded=0;orthogonalLoop=1;jettySize=auto;html=1;entryX=1;entryY=0.75;entryDx=0;entryDy=0;fontSize=12;" parent="eeA8OCcnUGyq8BiIao9--1" source="XlkLnrGHWDeot9S0G0ls-3" target="K8BTjExtuBlMBbfLbNbR-10" edge="1">
          <mxGeometry relative="1" as="geometry" />
        </mxCell>
        <mxCell id="soCsoXWZtLqGXEpcujwh-0" value="ETA não factível" style="edgeStyle=orthogonalEdgeStyle;rounded=0;orthogonalLoop=1;jettySize=auto;html=1;exitX=0;exitY=1;exitDx=0;exitDy=0;fontSize=14;entryX=1;entryY=0.5;entryDx=0;entryDy=0;fontStyle=1" edge="1" parent="eeA8OCcnUGyq8BiIao9--1" source="XlkLnrGHWDeot9S0G0ls-3" target="tvkRK-qn5aXQCbiaugHN-7">
          <mxGeometry relative="1" as="geometry">
            <mxPoint x="-180" y="640" as="targetPoint" />
          </mxGeometry>
        </mxCell>
        <mxCell id="XlkLnrGHWDeot9S0G0ls-3" value="Fulfillment Avalia capacidade" style="whiteSpace=wrap;html=1;rounded=1;fontSize=12;strokeColor=#36393d;fillColor=#cdeb8b;" parent="eeA8OCcnUGyq8BiIao9--1" vertex="1">
          <mxGeometry x="-90" y="425" width="120" height="60" as="geometry" />
        </mxCell>
        <mxCell id="K8BTjExtuBlMBbfLbNbR-16" value="" style="edgeStyle=orthogonalEdgeStyle;rounded=0;orthogonalLoop=1;jettySize=auto;html=1;fontSize=12;" parent="eeA8OCcnUGyq8BiIao9--1" source="XlkLnrGHWDeot9S0G0ls-5" target="K8BTjExtuBlMBbfLbNbR-15" edge="1">
          <mxGeometry relative="1" as="geometry" />
        </mxCell>
        <mxCell id="XlkLnrGHWDeot9S0G0ls-5" value="Altera pedidos para Programados" style="whiteSpace=wrap;html=1;rounded=1;fontSize=12;strokeColor=#36393d;fillColor=#cdeb8b;" parent="eeA8OCcnUGyq8BiIao9--1" vertex="1">
          <mxGeometry x="-50" y="520" width="120" height="60" as="geometry" />
        </mxCell>
        <mxCell id="K8BTjExtuBlMBbfLbNbR-9" style="edgeStyle=orthogonalEdgeStyle;rounded=0;orthogonalLoop=1;jettySize=auto;html=1;fontSize=12;" parent="eeA8OCcnUGyq8BiIao9--1" source="K8BTjExtuBlMBbfLbNbR-8" target="XlkLnrGHWDeot9S0G0ls-2" edge="1">
          <mxGeometry relative="1" as="geometry" />
        </mxCell>
        <mxCell id="K8BTjExtuBlMBbfLbNbR-8" value="Pedidos &lt;br style=&quot;font-size: 12px;&quot;&gt;Comercial" style="rounded=0;whiteSpace=wrap;html=1;strokeColor=#6c8ebf;fontSize=12;align=center;fillColor=#dae8fc;" parent="eeA8OCcnUGyq8BiIao9--1" vertex="1">
          <mxGeometry x="-90" y="200" width="120" height="60" as="geometry" />
        </mxCell>
        <mxCell id="tvkRK-qn5aXQCbiaugHN-2" value="" style="edgeStyle=orthogonalEdgeStyle;rounded=0;orthogonalLoop=1;jettySize=auto;html=1;fontSize=14;" edge="1" parent="eeA8OCcnUGyq8BiIao9--1" source="K8BTjExtuBlMBbfLbNbR-10" target="tvkRK-qn5aXQCbiaugHN-1">
          <mxGeometry relative="1" as="geometry" />
        </mxCell>
        <mxCell id="tvkRK-qn5aXQCbiaugHN-4" value="" style="edgeStyle=orthogonalEdgeStyle;rounded=0;orthogonalLoop=1;jettySize=auto;html=1;fontSize=14;" edge="1" parent="eeA8OCcnUGyq8BiIao9--1" source="K8BTjExtuBlMBbfLbNbR-10" target="tvkRK-qn5aXQCbiaugHN-3">
          <mxGeometry relative="1" as="geometry" />
        </mxCell>
        <mxCell id="K8BTjExtuBlMBbfLbNbR-10" value="Realizar Alinhamento&lt;br style=&quot;font-size: 14px&quot;&gt;(Fluxo e Responsáveis)" style="rounded=0;whiteSpace=wrap;html=1;strokeColor=#B20000;fontSize=14;align=center;fillColor=#e51400;fontColor=#ffffff;" parent="eeA8OCcnUGyq8BiIao9--1" vertex="1">
          <mxGeometry x="-370" y="350" width="200" height="90" as="geometry" />
        </mxCell>
        <mxCell id="K8BTjExtuBlMBbfLbNbR-19" value="" style="edgeStyle=orthogonalEdgeStyle;rounded=0;orthogonalLoop=1;jettySize=auto;html=1;fontSize=12;" parent="eeA8OCcnUGyq8BiIao9--1" source="K8BTjExtuBlMBbfLbNbR-15" target="K8BTjExtuBlMBbfLbNbR-18" edge="1">
          <mxGeometry relative="1" as="geometry" />
        </mxCell>
        <mxCell id="K8BTjExtuBlMBbfLbNbR-15" value="Sequenciamento de Pedidos (PCP)" style="whiteSpace=wrap;html=1;rounded=1;fontSize=12;strokeColor=#36393d;fillColor=#cdeb8b;" parent="eeA8OCcnUGyq8BiIao9--1" vertex="1">
          <mxGeometry x="100" y="520" width="120" height="60" as="geometry" />
        </mxCell>
        <mxCell id="K8BTjExtuBlMBbfLbNbR-21" value="" style="edgeStyle=orthogonalEdgeStyle;rounded=0;orthogonalLoop=1;jettySize=auto;html=1;fontSize=12;" parent="eeA8OCcnUGyq8BiIao9--1" source="K8BTjExtuBlMBbfLbNbR-18" target="K8BTjExtuBlMBbfLbNbR-20" edge="1">
          <mxGeometry relative="1" as="geometry" />
        </mxCell>
        <mxCell id="K8BTjExtuBlMBbfLbNbR-18" value="Contratação de Transportadora&lt;br style=&quot;font-size: 12px;&quot;&gt;(Logistica)" style="whiteSpace=wrap;html=1;rounded=1;fontSize=12;strokeColor=#36393d;fillColor=#cdeb8b;" parent="eeA8OCcnUGyq8BiIao9--1" vertex="1">
          <mxGeometry x="100" y="610" width="120" height="60" as="geometry" />
        </mxCell>
        <mxCell id="K8BTjExtuBlMBbfLbNbR-24" style="edgeStyle=orthogonalEdgeStyle;rounded=0;orthogonalLoop=1;jettySize=auto;html=1;fontSize=12;" parent="eeA8OCcnUGyq8BiIao9--1" source="K8BTjExtuBlMBbfLbNbR-20" target="eeA8OCcnUGyq8BiIao9--12" edge="1">
          <mxGeometry relative="1" as="geometry" />
        </mxCell>
        <mxCell id="K8BTjExtuBlMBbfLbNbR-30" value="" style="edgeStyle=orthogonalEdgeStyle;rounded=0;orthogonalLoop=1;jettySize=auto;html=1;fontSize=12;" parent="eeA8OCcnUGyq8BiIao9--1" source="K8BTjExtuBlMBbfLbNbR-20" target="K8BTjExtuBlMBbfLbNbR-29" edge="1">
          <mxGeometry relative="1" as="geometry" />
        </mxCell>
        <mxCell id="K8BTjExtuBlMBbfLbNbR-20" value="Agendamento da carga no Portal Web" style="whiteSpace=wrap;html=1;rounded=1;fontSize=12;strokeColor=#36393d;fillColor=#cdeb8b;" parent="eeA8OCcnUGyq8BiIao9--1" vertex="1">
          <mxGeometry x="100" y="720" width="120" height="60" as="geometry" />
        </mxCell>
        <mxCell id="K8BTjExtuBlMBbfLbNbR-26" value="" style="edgeStyle=orthogonalEdgeStyle;rounded=0;orthogonalLoop=1;jettySize=auto;html=1;fontSize=12;" parent="eeA8OCcnUGyq8BiIao9--1" source="K8BTjExtuBlMBbfLbNbR-22" target="K8BTjExtuBlMBbfLbNbR-25" edge="1">
          <mxGeometry relative="1" as="geometry" />
        </mxCell>
        <mxCell id="K8BTjExtuBlMBbfLbNbR-28" value="" style="edgeStyle=orthogonalEdgeStyle;rounded=0;orthogonalLoop=1;jettySize=auto;html=1;fontSize=12;" parent="eeA8OCcnUGyq8BiIao9--1" source="K8BTjExtuBlMBbfLbNbR-22" target="K8BTjExtuBlMBbfLbNbR-27" edge="1">
          <mxGeometry relative="1" as="geometry" />
        </mxCell>
        <mxCell id="K8BTjExtuBlMBbfLbNbR-22" value="Faturamento (NF)" style="whiteSpace=wrap;html=1;rounded=0;fontSize=12;strokeColor=#6c8ebf;fillColor=#dae8fc;" parent="eeA8OCcnUGyq8BiIao9--1" vertex="1">
          <mxGeometry x="100" y="1050" width="120" height="60" as="geometry" />
        </mxCell>
        <mxCell id="K8BTjExtuBlMBbfLbNbR-25" value="Não Temos status &quot;Pedido Entregue&quot;" style="whiteSpace=wrap;html=1;rounded=0;fontSize=12;strokeColor=#C73500;fillColor=#fa6800;fontColor=#ffffff;" parent="eeA8OCcnUGyq8BiIao9--1" vertex="1">
          <mxGeometry x="300" y="1050" width="120" height="60" as="geometry" />
        </mxCell>
        <mxCell id="K8BTjExtuBlMBbfLbNbR-27" value="Envio do SMS" style="whiteSpace=wrap;html=1;rounded=0;fontSize=12;strokeColor=#C73500;fillColor=#fa6800;fontColor=#ffffff;" parent="eeA8OCcnUGyq8BiIao9--1" vertex="1">
          <mxGeometry x="-100" y="1050" width="120" height="60" as="geometry" />
        </mxCell>
        <mxCell id="K8BTjExtuBlMBbfLbNbR-29" value="Hoje é somente CIF, mas futuramente o cliente poderá agendar" style="whiteSpace=wrap;html=1;rounded=1;fontSize=12;strokeColor=#C73500;fillColor=#fa6800;fontColor=#ffffff;" parent="eeA8OCcnUGyq8BiIao9--1" vertex="1">
          <mxGeometry x="300" y="720" width="200" height="60" as="geometry" />
        </mxCell>
        <mxCell id="K8BTjExtuBlMBbfLbNbR-33" style="edgeStyle=orthogonalEdgeStyle;rounded=0;orthogonalLoop=1;jettySize=auto;html=1;entryX=0.5;entryY=1;entryDx=0;entryDy=0;fontSize=12;" parent="eeA8OCcnUGyq8BiIao9--1" source="K8BTjExtuBlMBbfLbNbR-31" target="K8BTjExtuBlMBbfLbNbR-22" edge="1">
          <mxGeometry relative="1" as="geometry" />
        </mxCell>
        <mxCell id="K8BTjExtuBlMBbfLbNbR-36" value="" style="edgeStyle=orthogonalEdgeStyle;rounded=0;orthogonalLoop=1;jettySize=auto;html=1;fontSize=12;" parent="eeA8OCcnUGyq8BiIao9--1" source="K8BTjExtuBlMBbfLbNbR-31" target="K8BTjExtuBlMBbfLbNbR-35" edge="1">
          <mxGeometry relative="1" as="geometry" />
        </mxCell>
        <mxCell id="K8BTjExtuBlMBbfLbNbR-31" value="Portal Busca Lista de NF Disponíveis" style="whiteSpace=wrap;html=1;rounded=0;fontSize=12;strokeColor=#3A5431;fillColor=#6d8764;fontColor=#ffffff;" parent="eeA8OCcnUGyq8BiIao9--1" vertex="1">
          <mxGeometry x="70" y="1190" width="180" height="60" as="geometry" />
        </mxCell>
        <mxCell id="K8BTjExtuBlMBbfLbNbR-35" value="Imprime PDF" style="whiteSpace=wrap;html=1;rounded=0;fontSize=12;fontColor=#ffffff;strokeColor=#3A5431;fillColor=#6d8764;" parent="eeA8OCcnUGyq8BiIao9--1" vertex="1">
          <mxGeometry x="100" y="1300" width="120" height="60" as="geometry" />
        </mxCell>
        <mxCell id="tvkRK-qn5aXQCbiaugHN-1" value="Relatório de Vendas Online" style="whiteSpace=wrap;html=1;rounded=0;fontSize=14;fontColor=#ffffff;strokeColor=#C73500;fillColor=#fa6800;" vertex="1" parent="eeA8OCcnUGyq8BiIao9--1">
          <mxGeometry x="-370" y="510" width="200" height="60" as="geometry" />
        </mxCell>
        <mxCell id="tvkRK-qn5aXQCbiaugHN-6" value="" style="edgeStyle=orthogonalEdgeStyle;rounded=0;orthogonalLoop=1;jettySize=auto;html=1;fontSize=14;" edge="1" parent="eeA8OCcnUGyq8BiIao9--1" source="tvkRK-qn5aXQCbiaugHN-3" target="tvkRK-qn5aXQCbiaugHN-5">
          <mxGeometry relative="1" as="geometry" />
        </mxCell>
        <mxCell id="tvkRK-qn5aXQCbiaugHN-3" value="Deve ser respeitada a data de entrega" style="whiteSpace=wrap;html=1;rounded=0;fontSize=14;fontColor=#ffffff;strokeColor=#C73500;fillColor=#fa6800;" vertex="1" parent="eeA8OCcnUGyq8BiIao9--1">
          <mxGeometry x="-680" y="365" width="255" height="60" as="geometry" />
        </mxCell>
        <mxCell id="tvkRK-qn5aXQCbiaugHN-8" value="" style="edgeStyle=orthogonalEdgeStyle;rounded=0;orthogonalLoop=1;jettySize=auto;html=1;fontSize=14;" edge="1" parent="eeA8OCcnUGyq8BiIao9--1" source="tvkRK-qn5aXQCbiaugHN-5" target="tvkRK-qn5aXQCbiaugHN-7">
          <mxGeometry relative="1" as="geometry" />
        </mxCell>
        <mxCell id="tvkRK-qn5aXQCbiaugHN-5" value="Sinalizar o cliente de que a data solicitada não é factível" style="whiteSpace=wrap;html=1;rounded=0;fontSize=14;fontColor=#ffffff;strokeColor=#B20000;fillColor=#e51400;" vertex="1" parent="eeA8OCcnUGyq8BiIao9--1">
          <mxGeometry x="-692.5" y="510" width="280" height="60" as="geometry" />
        </mxCell>
        <mxCell id="tvkRK-qn5aXQCbiaugHN-10" value="" style="edgeStyle=orthogonalEdgeStyle;rounded=0;orthogonalLoop=1;jettySize=auto;html=1;fontSize=14;" edge="1" parent="eeA8OCcnUGyq8BiIao9--1" source="tvkRK-qn5aXQCbiaugHN-7" target="tvkRK-qn5aXQCbiaugHN-9">
          <mxGeometry relative="1" as="geometry" />
        </mxCell>
        <mxCell id="soCsoXWZtLqGXEpcujwh-2" value="" style="edgeStyle=orthogonalEdgeStyle;rounded=0;orthogonalLoop=1;jettySize=auto;html=1;fontSize=14;" edge="1" parent="eeA8OCcnUGyq8BiIao9--1" source="soCsoXWZtLqGXEpcujwh-3" target="soCsoXWZtLqGXEpcujwh-1">
          <mxGeometry relative="1" as="geometry" />
        </mxCell>
        <mxCell id="tvkRK-qn5aXQCbiaugHN-7" value="Criar página de Backoffice para&amp;nbsp; Controle/Sinalização de Pedidos Pendentes." style="whiteSpace=wrap;html=1;rounded=0;fontSize=14;fontColor=#ffffff;strokeColor=#B20000;fillColor=#e51400;" vertex="1" parent="eeA8OCcnUGyq8BiIao9--1">
          <mxGeometry x="-692.5" y="610" width="280" height="60" as="geometry" />
        </mxCell>
        <mxCell id="tvkRK-qn5aXQCbiaugHN-12" value="" style="edgeStyle=orthogonalEdgeStyle;rounded=0;orthogonalLoop=1;jettySize=auto;html=1;fontSize=14;" edge="1" parent="eeA8OCcnUGyq8BiIao9--1" source="tvkRK-qn5aXQCbiaugHN-9" target="tvkRK-qn5aXQCbiaugHN-11">
          <mxGeometry relative="1" as="geometry" />
        </mxCell>
        <mxCell id="tvkRK-qn5aXQCbiaugHN-9" value="Roadmap: &lt;br&gt;Possibilidade de Atualização de Status automática dos Pedidos." style="whiteSpace=wrap;html=1;rounded=0;fontSize=14;fontColor=#ffffff;strokeColor=#B20000;fillColor=#e51400;" vertex="1" parent="eeA8OCcnUGyq8BiIao9--1">
          <mxGeometry x="-692.5" y="710" width="280" height="60" as="geometry" />
        </mxCell>
        <mxCell id="tvkRK-qn5aXQCbiaugHN-11" value="Verificar se o cliente poderá realizar o cancelamento e como realizaremos a devolução do $$," style="whiteSpace=wrap;html=1;rounded=0;fontSize=14;fontColor=#ffffff;strokeColor=#B20000;fillColor=#e51400;" vertex="1" parent="eeA8OCcnUGyq8BiIao9--1">
          <mxGeometry x="-692.5" y="810" width="280" height="60" as="geometry" />
        </mxCell>
        <mxCell id="soCsoXWZtLqGXEpcujwh-1" value="Comunicaçao Via Whatsapp" style="whiteSpace=wrap;html=1;rounded=0;fontSize=14;fontColor=#ffffff;strokeColor=#B20000;fillColor=#e51400;" vertex="1" parent="eeA8OCcnUGyq8BiIao9--1">
          <mxGeometry x="-960" y="510" width="120" height="60" as="geometry" />
        </mxCell>
        <mxCell id="soCsoXWZtLqGXEpcujwh-4" value="Contra Proposta" style="edgeStyle=orthogonalEdgeStyle;rounded=0;orthogonalLoop=1;jettySize=auto;html=1;entryX=0;entryY=0.5;entryDx=0;entryDy=0;fontSize=14;fontStyle=1" edge="1" parent="eeA8OCcnUGyq8BiIao9--1" source="soCsoXWZtLqGXEpcujwh-3" target="tvkRK-qn5aXQCbiaugHN-7">
          <mxGeometry relative="1" as="geometry" />
        </mxCell>
        <mxCell id="soCsoXWZtLqGXEpcujwh-3" value="Concierge" style="shape=umlActor;verticalLabelPosition=bottom;verticalAlign=top;html=1;outlineConnect=0;fontSize=14;" vertex="1" parent="eeA8OCcnUGyq8BiIao9--1">
          <mxGeometry x="-915" y="610" width="30" height="60" as="geometry" />
        </mxCell>
      </root>
    </mxGraphModel>
  </diagram>
  <diagram id="1lhvXZ9s2YrH5QTF-6If" name="Login">
    <mxGraphModel dx="1831" dy="1634" grid="1" gridSize="10" guides="1" tooltips="1" connect="1" arrows="1" fold="1" page="1" pageScale="1" pageWidth="850" pageHeight="1100" math="0" shadow="0">
      <root>
        <mxCell id="Mm4b0fSG3VtpWS0iAW72-0" />
        <mxCell id="Mm4b0fSG3VtpWS0iAW72-1" parent="Mm4b0fSG3VtpWS0iAW72-0" />
        <mxCell id="Mm4b0fSG3VtpWS0iAW72-2" value="OnlineSales" style="shape=umlLifeline;perimeter=lifelinePerimeter;whiteSpace=wrap;html=1;container=1;collapsible=0;recursiveResize=0;outlineConnect=0;fillColor=#6a00ff;strokeColor=#3700CC;fontColor=#ffffff;" parent="Mm4b0fSG3VtpWS0iAW72-1" vertex="1">
          <mxGeometry x="40" y="80" width="100" height="300" as="geometry" />
        </mxCell>
        <mxCell id="Mm4b0fSG3VtpWS0iAW72-3" value="Mule" style="shape=umlLifeline;perimeter=lifelinePerimeter;whiteSpace=wrap;html=1;container=1;collapsible=0;recursiveResize=0;outlineConnect=0;fillColor=#d80073;strokeColor=#A50040;fontColor=#ffffff;" parent="Mm4b0fSG3VtpWS0iAW72-1" vertex="1">
          <mxGeometry x="250" y="80" width="100" height="300" as="geometry" />
        </mxCell>
        <mxCell id="Mm4b0fSG3VtpWS0iAW72-4" value="SAP" style="shape=umlLifeline;perimeter=lifelinePerimeter;whiteSpace=wrap;html=1;container=1;collapsible=0;recursiveResize=0;outlineConnect=0;fillColor=#1ba1e2;strokeColor=#006EAF;fontColor=#ffffff;" parent="Mm4b0fSG3VtpWS0iAW72-1" vertex="1">
          <mxGeometry x="490" y="80" width="100" height="300" as="geometry" />
        </mxCell>
        <mxCell id="Mm4b0fSG3VtpWS0iAW72-5" value="Midas" style="shape=umlLifeline;perimeter=lifelinePerimeter;whiteSpace=wrap;html=1;container=1;collapsible=0;recursiveResize=0;outlineConnect=0;fillColor=#a20025;strokeColor=#6F0000;fontColor=#ffffff;" parent="Mm4b0fSG3VtpWS0iAW72-1" vertex="1">
          <mxGeometry x="670" y="80" width="100" height="300" as="geometry" />
        </mxCell>
        <mxCell id="o4vdpWHoC_WDcFpM8mZl-1" value="Client" style="shape=umlLifeline;perimeter=lifelinePerimeter;whiteSpace=wrap;html=1;container=1;collapsible=0;recursiveResize=0;outlineConnect=0;fillColor=#008a00;strokeColor=#005700;fontColor=#ffffff;" vertex="1" parent="Mm4b0fSG3VtpWS0iAW72-1">
          <mxGeometry x="-170" y="80" width="100" height="300" as="geometry" />
        </mxCell>
        <mxCell id="o4vdpWHoC_WDcFpM8mZl-2" value="login(email, pwd)" style="endArrow=classic;html=1;" edge="1" parent="Mm4b0fSG3VtpWS0iAW72-1">
          <mxGeometry width="50" height="50" relative="1" as="geometry">
            <mxPoint x="-120" y="190" as="sourcePoint" />
            <mxPoint x="90" y="190" as="targetPoint" />
            <Array as="points">
              <mxPoint x="20.5" y="190" />
            </Array>
          </mxGeometry>
        </mxCell>
        <mxCell id="o4vdpWHoC_WDcFpM8mZl-3" value="auth_client()" style="endArrow=classic;html=1;" edge="1" parent="Mm4b0fSG3VtpWS0iAW72-1" target="Mm4b0fSG3VtpWS0iAW72-2">
          <mxGeometry width="50" height="50" relative="1" as="geometry">
            <mxPoint x="90" y="239.5" as="sourcePoint" />
            <mxPoint x="230" y="300" as="targetPoint" />
            <Array as="points">
              <mxPoint x="150" y="240" />
              <mxPoint x="150" y="280" />
            </Array>
          </mxGeometry>
        </mxCell>
        <mxCell id="o4vdpWHoC_WDcFpM8mZl-4" value="" style="endArrow=classic;html=1;" edge="1" parent="Mm4b0fSG3VtpWS0iAW72-1">
          <mxGeometry relative="1" as="geometry">
            <mxPoint x="89.5" y="320" as="sourcePoint" />
            <mxPoint x="-120.18965517241395" y="320" as="targetPoint" />
          </mxGeometry>
        </mxCell>
        <mxCell id="o4vdpWHoC_WDcFpM8mZl-5" value="redirect_to_main_page()" style="edgeLabel;resizable=0;html=1;align=center;verticalAlign=middle;" connectable="0" vertex="1" parent="o4vdpWHoC_WDcFpM8mZl-4">
          <mxGeometry relative="1" as="geometry" />
        </mxCell>
        <mxCell id="o4vdpWHoC_WDcFpM8mZl-6" value="Login: Client already subscribed" style="rounded=0;whiteSpace=wrap;html=1;fillColor=#f0a30a;strokeColor=#BD7000;fontColor=#ffffff;fontStyle=1" vertex="1" parent="Mm4b0fSG3VtpWS0iAW72-1">
          <mxGeometry x="-340" y="-20" width="210" height="60" as="geometry" />
        </mxCell>
      </root>
    </mxGraphModel>
  </diagram>
  <diagram name="New Client" id="Us-eHQtzrGlMch0Gkf2N">
    <mxGraphModel dx="2176" dy="1745" grid="1" gridSize="10" guides="1" tooltips="1" connect="1" arrows="1" fold="1" page="1" pageScale="1" pageWidth="850" pageHeight="1100" math="0" shadow="0">
      <root>
        <mxCell id="NXz4_VIbAhhR2ZG-VLtB-0" />
        <mxCell id="NXz4_VIbAhhR2ZG-VLtB-1" parent="NXz4_VIbAhhR2ZG-VLtB-0" />
        <mxCell id="_RRPGWK9oQausp720Slz-12" value="if (clients = 0 or not found)" style="shape=umlFrame;whiteSpace=wrap;html=1;fontSize=10;width=90;height=31;" vertex="1" parent="NXz4_VIbAhhR2ZG-VLtB-1">
          <mxGeometry x="-330" y="630" width="580" height="250" as="geometry" />
        </mxCell>
        <mxCell id="_RRPGWK9oQausp720Slz-7" value="if (clients&amp;gt;0)" style="shape=umlFrame;whiteSpace=wrap;html=1;fontSize=10;width=90;height=31;" vertex="1" parent="NXz4_VIbAhhR2ZG-VLtB-1">
          <mxGeometry x="-330" y="439" width="580" height="170" as="geometry" />
        </mxCell>
        <mxCell id="NXz4_VIbAhhR2ZG-VLtB-2" value="OnlineSales" style="shape=umlLifeline;perimeter=lifelinePerimeter;whiteSpace=wrap;html=1;container=1;collapsible=0;recursiveResize=0;outlineConnect=0;fillColor=#6a00ff;strokeColor=#3700CC;fontColor=#ffffff;" vertex="1" parent="NXz4_VIbAhhR2ZG-VLtB-1">
          <mxGeometry y="80" width="100" height="920" as="geometry" />
        </mxCell>
        <mxCell id="NXz4_VIbAhhR2ZG-VLtB-3" value="Mule" style="shape=umlLifeline;perimeter=lifelinePerimeter;whiteSpace=wrap;html=1;container=1;collapsible=0;recursiveResize=0;outlineConnect=0;fillColor=#d80073;strokeColor=#A50040;fontColor=#ffffff;" vertex="1" parent="NXz4_VIbAhhR2ZG-VLtB-1">
          <mxGeometry x="260" y="80" width="100" height="920" as="geometry" />
        </mxCell>
        <mxCell id="_RRPGWK9oQausp720Slz-17" value="&lt;font style=&quot;font-size: 11px&quot;&gt;search_status (cnpj, IE)&lt;/font&gt;" style="endArrow=classic;html=1;fontSize=8;" edge="1" parent="NXz4_VIbAhhR2ZG-VLtB-3" target="NXz4_VIbAhhR2ZG-VLtB-5">
          <mxGeometry width="50" height="50" relative="1" as="geometry">
            <mxPoint x="-210.0033333333335" y="630" as="sourcePoint" />
            <mxPoint x="74.82999999999998" y="630" as="targetPoint" />
            <Array as="points">
              <mxPoint x="-94.67000000000002" y="630" />
              <mxPoint x="-24.670000000000016" y="630" />
            </Array>
          </mxGeometry>
        </mxCell>
        <mxCell id="NXz4_VIbAhhR2ZG-VLtB-4" value="SAP" style="shape=umlLifeline;perimeter=lifelinePerimeter;whiteSpace=wrap;html=1;container=1;collapsible=0;recursiveResize=0;outlineConnect=0;fillColor=#1ba1e2;strokeColor=#006EAF;fontColor=#ffffff;" vertex="1" parent="NXz4_VIbAhhR2ZG-VLtB-1">
          <mxGeometry x="490" y="80" width="100" height="920" as="geometry" />
        </mxCell>
        <mxCell id="NXz4_VIbAhhR2ZG-VLtB-5" value="Midas" style="shape=umlLifeline;perimeter=lifelinePerimeter;whiteSpace=wrap;html=1;container=1;collapsible=0;recursiveResize=0;outlineConnect=0;fillColor=#a20025;strokeColor=#6F0000;fontColor=#ffffff;" vertex="1" parent="NXz4_VIbAhhR2ZG-VLtB-1">
          <mxGeometry x="670" y="80" width="100" height="920" as="geometry" />
        </mxCell>
        <mxCell id="NXz4_VIbAhhR2ZG-VLtB-6" value="Search root CNPJ: &lt;font color=&quot;#ff0000&quot; style=&quot;font-size: 9px;&quot;&gt;111.111.111&lt;/font&gt;/0001-01" style="text;html=1;strokeColor=none;fillColor=none;align=center;verticalAlign=middle;whiteSpace=wrap;rounded=0;fontStyle=1;fontSize=9;" vertex="1" parent="NXz4_VIbAhhR2ZG-VLtB-1">
          <mxGeometry x="-490" y="320" width="230" as="geometry" />
        </mxCell>
        <mxCell id="NXz4_VIbAhhR2ZG-VLtB-7" value="Client" style="shape=umlLifeline;perimeter=lifelinePerimeter;whiteSpace=wrap;html=1;container=1;collapsible=0;recursiveResize=0;outlineConnect=0;fillColor=#008a00;strokeColor=#005700;fontColor=#ffffff;" vertex="1" parent="NXz4_VIbAhhR2ZG-VLtB-1">
          <mxGeometry x="-295" y="80" width="120" height="920" as="geometry" />
        </mxCell>
        <mxCell id="NXz4_VIbAhhR2ZG-VLtB-10" value="return_list( clients [] )" style="endArrow=classic;html=1;" edge="1" parent="NXz4_VIbAhhR2ZG-VLtB-1">
          <mxGeometry x="0.2558" relative="1" as="geometry">
            <mxPoint x="539.5" y="324" as="sourcePoint" />
            <mxPoint x="309.92857142857156" y="324" as="targetPoint" />
            <Array as="points">
              <mxPoint x="380" y="324" />
              <mxPoint x="440" y="324" />
            </Array>
            <mxPoint as="offset" />
          </mxGeometry>
        </mxCell>
        <mxCell id="NXz4_VIbAhhR2ZG-VLtB-12" value="Login: New Client in SalesOnline (First Access)" style="rounded=0;whiteSpace=wrap;html=1;fillColor=#f0a30a;strokeColor=#BD7000;fontColor=#ffffff;fontStyle=1" vertex="1" parent="NXz4_VIbAhhR2ZG-VLtB-1">
          <mxGeometry x="-340" y="-20" width="210" height="60" as="geometry" />
        </mxCell>
        <mxCell id="KKQDl1QJwqnxdXPROw7a-5" value="subscribe (email)" style="endArrow=classic;html=1;fontStyle=1" edge="1" parent="NXz4_VIbAhhR2ZG-VLtB-1" source="NXz4_VIbAhhR2ZG-VLtB-7" target="NXz4_VIbAhhR2ZG-VLtB-2">
          <mxGeometry x="0.1609" y="22" width="50" height="50" relative="1" as="geometry">
            <mxPoint x="-77" y="185" as="sourcePoint" />
            <mxPoint x="10" y="165" as="targetPoint" />
            <Array as="points">
              <mxPoint x="-70" y="170" />
              <mxPoint x="-30" y="170" />
            </Array>
            <mxPoint x="-20" y="12" as="offset" />
          </mxGeometry>
        </mxCell>
        <mxCell id="X03jaI0uKQWR3NKdrzLc-1" value="search_branches(email)" style="endArrow=classic;html=1;" edge="1" parent="NXz4_VIbAhhR2ZG-VLtB-1" target="NXz4_VIbAhhR2ZG-VLtB-4">
          <mxGeometry width="50" height="50" relative="1" as="geometry">
            <mxPoint x="50.00034482758605" y="279.9999999999998" as="sourcePoint" />
            <mxPoint x="150.19" y="279.9999999999998" as="targetPoint" />
          </mxGeometry>
        </mxCell>
        <mxCell id="_RRPGWK9oQausp720Slz-0" value="setup_list_to_show( clients[] )" style="endArrow=classic;html=1;" edge="1" parent="NXz4_VIbAhhR2ZG-VLtB-1">
          <mxGeometry x="0.2485" y="-53" width="50" height="50" relative="1" as="geometry">
            <mxPoint x="50.190000000000055" y="448.9999999999998" as="sourcePoint" />
            <mxPoint x="50.000344827586105" y="489.4999999999998" as="targetPoint" />
            <Array as="points">
              <mxPoint x="110.19" y="449.5" />
              <mxPoint x="110.19" y="489.5" />
            </Array>
            <mxPoint x="50" y="34" as="offset" />
          </mxGeometry>
        </mxCell>
        <mxCell id="_RRPGWK9oQausp720Slz-4" value="pickup_main_cnpj()" style="endArrow=classic;html=1;" edge="1" parent="NXz4_VIbAhhR2ZG-VLtB-1">
          <mxGeometry x="-0.114" width="50" height="50" relative="1" as="geometry">
            <mxPoint x="-235.33333333333348" y="579" as="sourcePoint" />
            <mxPoint x="49.5" y="579" as="targetPoint" />
            <Array as="points">
              <mxPoint x="-170" y="579" />
              <mxPoint x="20" y="579" />
            </Array>
            <mxPoint as="offset" />
          </mxGeometry>
        </mxCell>
        <mxCell id="_RRPGWK9oQausp720Slz-5" value="highlight_cnpj _available (UF)" style="endArrow=classic;html=1;" edge="1" parent="NXz4_VIbAhhR2ZG-VLtB-1">
          <mxGeometry x="0.2395" y="-51" width="50" height="50" relative="1" as="geometry">
            <mxPoint x="49.666666666666515" y="499.5" as="sourcePoint" />
            <mxPoint x="49.666666666666515" y="539.5" as="targetPoint" />
            <Array as="points">
              <mxPoint x="113.19" y="499.5" />
              <mxPoint x="113.19" y="539.5" />
            </Array>
            <mxPoint x="47" y="32" as="offset" />
          </mxGeometry>
        </mxCell>
        <mxCell id="_RRPGWK9oQausp720Slz-6" value="save_client(email, cnpj, ...)" style="endArrow=classic;html=1;" edge="1" parent="NXz4_VIbAhhR2ZG-VLtB-1">
          <mxGeometry x="-0.2407" y="-33" width="50" height="50" relative="1" as="geometry">
            <mxPoint x="49.666666666666515" y="909" as="sourcePoint" />
            <mxPoint x="49.666666666666515" y="959" as="targetPoint" />
            <Array as="points">
              <mxPoint x="120" y="909" />
              <mxPoint x="120" y="929" />
              <mxPoint x="120" y="959" />
            </Array>
            <mxPoint x="60" y="19" as="offset" />
          </mxGeometry>
        </mxCell>
        <mxCell id="_RRPGWK9oQausp720Slz-8" value="update_create_client(cnpj, email)" style="endArrow=classic;html=1;" edge="1" parent="NXz4_VIbAhhR2ZG-VLtB-1">
          <mxGeometry x="-0.114" width="50" height="50" relative="1" as="geometry">
            <mxPoint x="49.666666666666515" y="989" as="sourcePoint" />
            <mxPoint x="539.5" y="989" as="targetPoint" />
            <Array as="points">
              <mxPoint x="130" y="989" />
              <mxPoint x="450" y="989" />
              <mxPoint x="500" y="989" />
            </Array>
            <mxPoint as="offset" />
          </mxGeometry>
        </mxCell>
        <mxCell id="_RRPGWK9oQausp720Slz-9" value="&lt;font style=&quot;font-size: 11px&quot;&gt;search_status(cnpj, IE)&lt;/font&gt;" style="endArrow=classic;html=1;fontSize=10;" edge="1" parent="NXz4_VIbAhhR2ZG-VLtB-1">
          <mxGeometry width="50" height="50" relative="1" as="geometry">
            <mxPoint x="309.92857142857156" y="368" as="sourcePoint" />
            <mxPoint x="719.5" y="368" as="targetPoint" />
            <Array as="points">
              <mxPoint x="600" y="368" />
            </Array>
          </mxGeometry>
        </mxCell>
        <mxCell id="_RRPGWK9oQausp720Slz-10" value="return_list( clients [] )" style="endArrow=classic;html=1;" edge="1" parent="NXz4_VIbAhhR2ZG-VLtB-1" source="NXz4_VIbAhhR2ZG-VLtB-3" target="NXz4_VIbAhhR2ZG-VLtB-2">
          <mxGeometry x="0.2558" relative="1" as="geometry">
            <mxPoint x="280" y="400" as="sourcePoint" />
            <mxPoint x="79.99857142857155" y="400" as="targetPoint" />
            <Array as="points">
              <mxPoint x="150.07" y="400" />
              <mxPoint x="210.07" y="400" />
            </Array>
            <mxPoint as="offset" />
          </mxGeometry>
        </mxCell>
        <mxCell id="_RRPGWK9oQausp720Slz-11" value="&lt;font&gt;&lt;font style=&quot;font-size: 8px&quot;&gt;Not available:&lt;/font&gt;&lt;br&gt;&lt;br&gt;&lt;span style=&quot;font-size: 7px&quot;&gt;1. CNPJ from others UF&lt;/span&gt;&lt;br&gt;&lt;span style=&quot;font-size: 7px&quot;&gt;2. IE blocked&lt;/span&gt;&lt;/font&gt;" style="rounded=1;whiteSpace=wrap;html=1;fontSize=8;align=left;fillColor=#fa6800;strokeColor=#C73500;fontColor=#ffffff;" vertex="1" parent="NXz4_VIbAhhR2ZG-VLtB-1">
          <mxGeometry x="120" y="540" width="100" height="40" as="geometry" />
        </mxCell>
        <mxCell id="_RRPGWK9oQausp720Slz-16" value="&lt;font style=&quot;font-size: 11px&quot;&gt;fullfill_form(cnpj, ie, name, ...)&lt;/font&gt;" style="endArrow=classic;html=1;fontSize=8;" edge="1" parent="NXz4_VIbAhhR2ZG-VLtB-1" source="NXz4_VIbAhhR2ZG-VLtB-7" target="NXz4_VIbAhhR2ZG-VLtB-2">
          <mxGeometry width="50" height="50" relative="1" as="geometry">
            <mxPoint x="-210" y="720" as="sourcePoint" />
            <mxPoint x="-160" y="670" as="targetPoint" />
            <Array as="points">
              <mxPoint x="-120" y="670" />
              <mxPoint x="-50" y="670" />
            </Array>
          </mxGeometry>
        </mxCell>
        <mxCell id="_RRPGWK9oQausp720Slz-18" value="IF_IE_BLOCKED_STOP()" style="endArrow=classic;html=1;" edge="1" parent="NXz4_VIbAhhR2ZG-VLtB-1">
          <mxGeometry x="-0.293" y="-30" width="50" height="50" relative="1" as="geometry">
            <mxPoint x="49.666666666666515" y="728" as="sourcePoint" />
            <mxPoint x="49.666666666666515" y="778" as="targetPoint" />
            <Array as="points">
              <mxPoint x="110" y="728" />
              <mxPoint x="110" y="778" />
            </Array>
            <mxPoint x="50" y="22" as="offset" />
          </mxGeometry>
        </mxCell>
        <mxCell id="_RRPGWK9oQausp720Slz-19" value="&lt;font style=&quot;font-size: 11px&quot;&gt;input_address()&lt;/font&gt;" style="endArrow=classic;html=1;fontSize=8;" edge="1" parent="NXz4_VIbAhhR2ZG-VLtB-1" source="NXz4_VIbAhhR2ZG-VLtB-7" target="NXz4_VIbAhhR2ZG-VLtB-2">
          <mxGeometry width="50" height="50" relative="1" as="geometry">
            <mxPoint x="-200" y="810" as="sourcePoint" />
            <mxPoint x="34.83" y="810" as="targetPoint" />
            <Array as="points">
              <mxPoint x="-134.67000000000002" y="810" />
              <mxPoint x="-64.67" y="810" />
            </Array>
          </mxGeometry>
        </mxCell>
      </root>
    </mxGraphModel>
  </diagram>
</mxfile>
